<svg xmlns="http://www.w3.org/2000/svg" viewBox="0 0 66.15 44.54"><defs><style>.cls-1{fill:#c6a777;}</style></defs><g id="Layer_2" data-name="Layer 2"><g id="Layer_1-2" data-name="Layer 1"><path class="cls-1" d="M22.1,35.3c7.32,0,13.2-3.36,13.2-12.44v-16c-.17-4-1.09-6.39-5-6.39V0H40.43V24.37c-.34,7.23-5.89,13.12-13.11,13.12a13.18,13.18,0,0,1-7.65-2.44A11.18,11.18,0,0,0,22.1,35.3Z"/><path d="M26,1.43H13.45v.5c5.38,0,7.06,3,7.56,8.24V26.05C20.93,37.4,13.53,41.69,4.37,41.69a19.59,19.59,0,0,1-3.11-.25,16.52,16.52,0,0,0,9.58,3.1c9.25,0,16.14-7.48,16.64-16.64V1.43Z"/><path class="cls-1" d="M24.71,0H12.19V.59c5.38,0,7.06,3,7.56,8.23V24.71c-.08,11.35-7.48,15.63-16.64,15.63A18.48,18.48,0,0,1,0,40.09a16.46,16.46,0,0,0,9.58,3c9.16,0,16.14-7.4,16.64-16.56V0Z"/><path class="cls-1" d="M45.47,1.09c0-.59-.17-.67-.59-.67V.08H59.09c3.27,0,6.3,2,6.3,5.8a4.49,4.49,0,0,1-3.28,4.37v.09c2.61.84,4,2.52,4,5.29,0,4-3.2,6-6.56,6H44.88v-.34c.42,0,.59-.16.59-.67Zm3,8h10c2.35,0,3.86-1.52,3.86-3.45,0-1.68-1.26-2.94-4-2.94H48.5Zm0,9.91H58.92c2.43,0,4.2-1.17,4.2-3.61,0-2.77-2.44-3.7-5.55-3.7H48.5Z"/></g></g></svg>