<svg xmlns="http://www.w3.org/2000/svg" viewBox="0 0 19.05 20.24"><defs><style>.cls-1{fill:#fff;}</style></defs><g id="Layer_2" data-name="Layer 2"><g id="Layer_1-2" data-name="Layer 1"><g id="Disable-person"><path class="cls-1" d="M13.43,14.53a.32.32,0,0,0-.38.24A6.3,6.3,0,1,1,4.28,7.6a.31.31,0,0,0,.15-.42A.32.32,0,0,0,4,7a6.93,6.93,0,1,0,9.66,7.89A.32.32,0,0,0,13.43,14.53Z"/><path class="cls-1" d="M18.73,16.09H16.47l-1.61-4.22a.32.32,0,0,0-.3-.21h-6L6.87,7.81h3.52a.32.32,0,1,0,0-.63H6.59L5.35,4.33a2.21,2.21,0,1,0-.66.1h0l3.36,7.68a.32.32,0,0,0,.29.19h6L16,16.52a.31.31,0,0,0,.29.21h2.48a.32.32,0,0,0,.32-.32A.32.32,0,0,0,18.73,16.09ZM3.11,2.22A1.59,1.59,0,1,1,4.69,3.8,1.59,1.59,0,0,1,3.11,2.22Z"/></g></g></g></svg>