<svg xmlns="http://www.w3.org/2000/svg" viewBox="0 0 19.29 15"><defs><style>.cls-1{fill:#ccc;}</style></defs><g id="Layer_2" data-name="Layer 2"><g id="Layer_1-2" data-name="Layer 1"><path class="cls-1" d="M17.89,2H12.78l-1-1.74A.55.55,0,0,0,11.27,0H8a.58.58,0,0,0-.49.27L6.51,2H4.84V1.62a.57.57,0,0,0-.56-.56H2.21a.57.57,0,0,0-.56.56V2H1.41A1.41,1.41,0,0,0,0,3.41V13.59A1.41,1.41,0,0,0,1.41,15H17.89a1.41,1.41,0,0,0,1.4-1.41V3.41A1.4,1.4,0,0,0,17.89,2ZM9.65,12.51a4,4,0,1,1,4-4A4,4,0,0,1,9.65,12.51ZM17,4.9H15.26a.56.56,0,1,1,0-1.11H17A.56.56,0,1,1,17,4.9Z"/></g></g></svg>