<svg xmlns="http://www.w3.org/2000/svg" viewBox="0 0 16.51 16.07"><defs><style>.cls-1{fill:#4d4d4d;}</style></defs><g id="Layer_2" data-name="Layer 2"><g id="Layer_1-2" data-name="Layer 1"><path class="cls-1" d="M5.27,12.62A1.73,1.73,0,1,0,7,14.34,1.72,1.72,0,0,0,5.27,12.62Zm0,2.68a1,1,0,1,1,0-1.91,1,1,0,0,1,0,1.91Z"/><path class="cls-1" d="M12.54,12.62a1.73,1.73,0,1,0,1.73,1.72A1.72,1.72,0,0,0,12.54,12.62Zm0,2.68a1,1,0,1,1,1-1A1,1,0,0,1,12.54,15.3Z"/><path class="cls-1" d="M16.43,2.57a.47.47,0,0,0-.31-.16L3.66,2.24,3.31,1.19A1.75,1.75,0,0,0,1.67,0H.38A.38.38,0,0,0,0,.38.39.39,0,0,0,.38.77H1.67a1,1,0,0,1,.92.67L5,8.77l-.19.44A1.83,1.83,0,0,0,5,10.88a1.79,1.79,0,0,0,1.43.8h7.45a.38.38,0,1,0,0-.76H6.43a1,1,0,0,1-.8-.46,1.07,1.07,0,0,1-.1-.92l.16-.35,8.06-.84a2.12,2.12,0,0,0,1.82-1.61l.92-3.85A.31.31,0,0,0,16.43,2.57Zm-1.61,4a1.29,1.29,0,0,1-1.17,1l-8,.83L3.91,3l11.74.17Z"/></g></g></svg>