<svg xmlns="http://www.w3.org/2000/svg" viewBox="0 0 8.49 8.26"><defs><style>.cls-1{fill:#c6a777;}</style></defs><g id="Layer_2" data-name="Layer 2"><g id="Layer_1-2" data-name="Layer 1"><path class="cls-1" d="M2.71,6.49a.89.89,0,1,0,.89.89A.89.89,0,0,0,2.71,6.49Zm0,1.38a.49.49,0,0,1-.49-.49.49.49,0,1,1,1,0A.49.49,0,0,1,2.71,7.87Z"/><path class="cls-1" d="M6.45,6.49a.89.89,0,1,0,.89.89A.88.88,0,0,0,6.45,6.49Zm0,1.38A.49.49,0,0,1,6,7.38a.49.49,0,1,1,1,0A.49.49,0,0,1,6.45,7.87Z"/><path class="cls-1" d="M8.45,1.32a.3.3,0,0,0-.16-.08L1.88,1.15,1.7.61A.89.89,0,0,0,.86,0H.2A.2.2,0,0,0,0,.2.19.19,0,0,0,.2.39H.86a.53.53,0,0,1,.47.35L2.58,4.51l-.1.23a1,1,0,0,0,.09.85A.92.92,0,0,0,3.31,6H7.14a.2.2,0,1,0,0-.4H3.31a.49.49,0,0,1-.41-.23.52.52,0,0,1,0-.47l.08-.18,4.14-.44A1.09,1.09,0,0,0,8,3.47l.47-2A.17.17,0,0,0,8.45,1.32ZM7.62,3.38A.65.65,0,0,1,7,3.9l-4.09.42L2,1.55l6,.09Z"/></g></g></svg>