<svg xmlns="http://www.w3.org/2000/svg" viewBox="0 0 45.18 42.65"  xmlns:v="https://vecta.io/nano"><path d="M44.59 23.27h-1.26v-6.61a6.23 6.23 0 0 0-1.85-4.42 4.17 4.17 0 0 0-.38-.34 4.47 4.47 0 0 1-1.57-3.41V.62a.62.62 0 0 0-.59-.62h-3.77a.64.64 0 0 0-.61.62v7.94A4.37 4.37 0 0 1 33 11.9a6.28 6.28 0 0 0-2.2 4.76v6.61h-1.98v-6.61A6.2 6.2 0 0 0 27 12.24c-.12-.12-.26-.23-.39-.34A4.53 4.53 0 0 1 25 8.49V.62a.58.58 0 0 0-.53-.62H20.7a.59.59 0 0 0-.55.62v7.94a4.37 4.37 0 0 1-1.59 3.34 6.28 6.28 0 0 0-2.2 4.76v6.61h-1.95v-6.61a6.23 6.23 0 0 0-1.85-4.42l-.37-.34a4.48 4.48 0 0 1-1.58-3.41V.62A.63.63 0 0 0 10 0H6.24a.62.62 0 0 0-.59.62v7.94a4.43 4.43 0 0 1-1.59 3.34 6.25 6.25 0 0 0-2.21 4.76v6.61H.58a.58.58 0 0 0-.58.58v18.21a.59.59 0 0 0 .58.59h44a.59.59 0 0 0 .59-.59V23.85a.58.58 0 0 0-.58-.58zm-8.86-22.1h2.63v2.14h-2.63zm-3.79 15.49a5.11 5.11 0 0 1 1.79-3.87 5.54 5.54 0 0 0 2-4.23V4.48h2.63v4a5.65 5.65 0 0 0 2 4.3l.32.28a5 5 0 0 1 1.5 3.59v1h-5.13a.59.59 0 0 0-.54.63v5h-4.57zm10.22 2.13v4.48h-4.48v-4.48zM21.32 1.17h2.53v2.14h-2.53zm-3.79 15.49a5.11 5.11 0 0 1 1.79-3.87 5.54 5.54 0 0 0 2-4.23V4.48h2.53v4a5.66 5.66 0 0 0 2 4.3 4 4 0 0 1 .3.28 5 5 0 0 1 1.49 3.59v1h-5.05a.59.59 0 0 0-.59.59v.87a.59.59 0 0 0 .59.59.58.58 0 0 0 .58-.59v-.29h4.48v4.48h-4.48v-.88a.58.58 0 0 0-.58-.58.59.59 0 0 0-.59.58v.88h-4.47zM6.82 1.17h2.62v2.14H6.82zM3 16.66a5.11 5.11 0 0 1 1.79-3.87 5.58 5.58 0 0 0 2-4.23V4.48h2.65v4a5.65 5.65 0 0 0 2 4.3l.32.28a5 5 0 0 1 1.5 3.59v1H8.12a.65.65 0 0 0-.62.63v5H3zm10.22 2.13v4.48H8.67v-4.48zM44 41.48H1.17V36.8H44zm0-11.78H9.35a.58.58 0 1 0 0 1.16H44v4.78H1.17v-4.78H6a.58.58 0 0 0 0-1.16H1.17v-5.26H44z" fill="gray"/></svg>