<svg xmlns="http://www.w3.org/2000/svg" viewBox="0 0 45.46 42.93"><defs><style>.cls-1{fill:#c6a777;stroke:#000;stroke-miterlimit:10;stroke-width:0.28px;}</style></defs><g id="Layer_2" data-name="Layer 2"><g id="Layer_1-2" data-name="Layer 1"><path class="cls-1" d="M44.73,23.41H43.47V16.8a6.26,6.26,0,0,0-1.84-4.42c-.12-.12-.26-.23-.39-.34a4.47,4.47,0,0,1-1.57-3.41V.76a.62.62,0,0,0-.59-.62H35.31a.63.63,0,0,0-.6.62V8.7a4.45,4.45,0,0,1-1.6,3.35,6.24,6.24,0,0,0-2.2,4.75v6.61H29V16.8a6.2,6.2,0,0,0-1.82-4.42c-.12-.12-.26-.23-.39-.34a4.53,4.53,0,0,1-1.59-3.41V.76a.58.58,0,0,0-.54-.62H20.84a.58.58,0,0,0-.54.62V8.7a4.45,4.45,0,0,1-1.6,3.35,6.24,6.24,0,0,0-2.2,4.75v6.61H14.55V16.8a6.23,6.23,0,0,0-1.85-4.42L12.33,12a4.48,4.48,0,0,1-1.58-3.41V.76a.63.63,0,0,0-.6-.62H6.38a.62.62,0,0,0-.59.62V8.7A4.47,4.47,0,0,1,4.2,12.05,6.25,6.25,0,0,0,2,16.8v6.61H.73A.58.58,0,0,0,.14,24V42.2a.58.58,0,0,0,.59.59h44a.58.58,0,0,0,.59-.59V24A.58.58,0,0,0,44.73,23.41ZM35.87,1.31H38.5V3.45H35.87ZM32.08,16.8a5.07,5.07,0,0,1,1.79-3.86,5.57,5.57,0,0,0,2-4.24V4.62H38.5v4a5.65,5.65,0,0,0,2,4.3c.11.09.22.18.32.28a5,5,0,0,1,1.5,3.59v1H37.19a.59.59,0,0,0-.54.63v5H32.08ZM42.3,18.93v4.48H37.82V18.93ZM21.46,1.31H24V3.45H21.46ZM17.67,16.8a5.07,5.07,0,0,1,1.79-3.86,5.57,5.57,0,0,0,2-4.24V4.62H24v4a5.62,5.62,0,0,0,2,4.3,4,4,0,0,1,.3.28,5,5,0,0,1,1.49,3.59v1H22.73a.59.59,0,0,0-.58.59v.88a.58.58,0,0,0,1.16,0v-.3h4.48v4.48H23.31v-.87a.58.58,0,1,0-1.16,0v.87H17.67ZM7,1.31H9.59V3.45H7ZM3.16,16.8A5,5,0,0,1,5,12.94,5.64,5.64,0,0,0,7,8.7V4.62H9.59v4a5.6,5.6,0,0,0,2,4.3c.1.09.22.18.32.28a5,5,0,0,1,1.5,3.59v1H8.27a.67.67,0,0,0-.63.63v5H3.16Zm10.22,2.13v4.48H8.81V18.93ZM44.15,41.62H1.31V37H44.15Zm0-11.78H9.49a.59.59,0,0,0-.59.58.6.6,0,0,0,.59.59H44.15v4.77H1.31V31H6.18a.59.59,0,0,0,.58-.59.58.58,0,0,0-.58-.58H1.31V24.58H44.15Z"/></g></g></svg>