<svg xmlns="http://www.w3.org/2000/svg" viewBox="0 0 14.14 14.79"><defs><style>.cls-1{fill:#4d4d4d;}</style></defs><g id="Layer_2" data-name="Layer 2"><g id="Layer_1-2" data-name="Layer 1"><path class="cls-1" d="M7.07,7.41A7.08,7.08,0,0,0,0,14.48a.31.31,0,0,0,.31.31.31.31,0,0,0,.31-.31,6.45,6.45,0,1,1,12.9,0,.31.31,0,0,0,.62,0A7.08,7.08,0,0,0,7.07,7.41"/><path class="cls-1" d="M7.07,0a3.38,3.38,0,1,0,3.38,3.38A3.38,3.38,0,0,0,7.07,0m0,6.15A2.77,2.77,0,1,1,9.83,3.38,2.77,2.77,0,0,1,7.07,6.15"/></g></g></svg>