<svg xmlns="http://www.w3.org/2000/svg" viewBox="0 0 30 30"><defs><style>.cls-1{fill:#c6a777;}</style></defs><g id="Layer_2" data-name="Layer 2"><g id="Layer_1-2" data-name="Layer 1"><path class="cls-1" d="M29.21,23.14l-6.07-4.05a1.77,1.77,0,0,0-2.37.39L19,21.75A.76.76,0,0,1,18,22l-.34-.19a20.44,20.44,0,0,1-5.3-4.16,20.69,20.69,0,0,1-4.16-5.3L8.05,12a.75.75,0,0,1,.2-1l2.27-1.77a1.77,1.77,0,0,0,.39-2.37L6.86.79A1.77,1.77,0,0,0,4.48.25L1.94,1.78A3.57,3.57,0,0,0,.31,3.9C-.61,7.23.08,13,8.55,21.45,15.29,28.19,20.31,30,23.75,30a8.82,8.82,0,0,0,2.35-.31,3.57,3.57,0,0,0,2.12-1.63l1.53-2.54A1.76,1.76,0,0,0,29.21,23.14ZM28.89,25l-1.53,2.54a2.57,2.57,0,0,1-1.52,1.18c-3.08.84-8.45.15-16.58-8S.43,7.24,1.27,4.16A2.57,2.57,0,0,1,2.45,2.64L5,1.11a.78.78,0,0,1,1,.23l2.2,3.31,1.84,2.77a.77.77,0,0,1-.17,1L7.63,10.21a1.75,1.75,0,0,0-.46,2.25l.18.33a21.23,21.23,0,0,0,4.33,5.53,21.23,21.23,0,0,0,5.53,4.33l.33.18a1.75,1.75,0,0,0,2.25-.46l1.76-2.28a.78.78,0,0,1,1-.16L28.66,24A.76.76,0,0,1,28.89,25Z"/></g></g></svg>