<svg xmlns="http://www.w3.org/2000/svg" viewBox="0 0 26.11 35.25"><defs><style>.cls-1{fill:#c6a777;stroke:#000;stroke-miterlimit:10;stroke-width:0.25px;}</style></defs><g id="Layer_2" data-name="Layer 2"><g id="Layer_1-2" data-name="Layer 1"><path class="cls-1" d="M13.05.12A12.94,12.94,0,0,0,.12,13.05a14.94,14.94,0,0,0,1.1,5,20.38,20.38,0,0,0,1.5,2.8l8.86,13.43a1.69,1.69,0,0,0,2.95,0l8.86-13.43a20.38,20.38,0,0,0,1.5-2.8,15,15,0,0,0,1.09-5A12.94,12.94,0,0,0,13.05.12ZM23.48,17.44A18.37,18.37,0,0,1,22.12,20L13.26,33.42c-.18.27-.23.27-.41,0L4,20a19.57,19.57,0,0,1-1.37-2.55,13.67,13.67,0,0,1-1-4.39,11.41,11.41,0,0,1,22.81,0A13.48,13.48,0,0,1,23.48,17.44Z"/><path class="cls-1" d="M13.05,6.21a6.85,6.85,0,1,0,6.85,6.84A6.85,6.85,0,0,0,13.05,6.21Zm0,12.17a5.33,5.33,0,1,1,5.33-5.33A5.33,5.33,0,0,1,13.05,18.38Z"/></g></g></svg>