<svg xmlns="http://www.w3.org/2000/svg" viewBox="0 0 26.11 35.25"  fill="gray" stroke="#f4f4f4" stroke-miterlimit="10" stroke-width=".25" xmlns:v="https://vecta.io/nano"><path d="M13.05.12A12.94 12.94 0 0 0 .12 13.05a14.94 14.94 0 0 0 1.1 5 20.38 20.38 0 0 0 1.5 2.8l8.86 13.43a1.69 1.69 0 0 0 2.95 0l8.86-13.43a20.38 20.38 0 0 0 1.5-2.8 15 15 0 0 0 1.09-5A12.94 12.94 0 0 0 13.05.12zm10.43 17.32A18.37 18.37 0 0 1 22.12 20l-8.86 13.42c-.18.27-.23.27-.41 0L4 20a19.57 19.57 0 0 1-1.37-2.55 13.67 13.67 0 0 1-1-4.39 11.41 11.41 0 0 1 22.81 0 13.48 13.48 0 0 1-.96 4.38zM13.05 6.21a6.85 6.85 0 1 0 6.85 6.84 6.85 6.85 0 0 0-6.85-6.84zm0 12.17a5.33 5.33 0 1 1 5.33-5.33 5.33 5.33 0 0 1-5.33 5.33z"/></svg>