<svg xmlns="http://www.w3.org/2000/svg" viewBox="0 0 56.48 36.6"><defs><style>.cls-1{fill:#4e4d4d;}.cls-2{fill:#f2f2f2;}</style></defs><g id="Layer_2" data-name="Layer 2"><g id="Layer_1-2" data-name="Layer 1"><path class="cls-1" d="M1.45,0H55a1.45,1.45,0,0,1,1.45,1.45V35.15A1.46,1.46,0,0,1,55,36.6H1.45A1.45,1.45,0,0,1,0,35.15V1.45A1.45,1.45,0,0,1,1.45,0Z"/><polygon class="cls-2" points="5.83 13.53 7.72 13.53 6.78 11.13 5.83 13.53"/><polygon class="cls-2" points="15.88 21.61 15.88 22.73 19.06 22.73 19.06 23.93 15.88 23.93 15.88 25.22 19.41 25.22 21.04 23.41 19.49 21.61 15.88 21.61"/><polygon class="cls-2" points="40.72 11.13 39.69 13.53 41.66 13.53 40.72 11.13"/><polygon class="cls-2" points="25.08 25.91 25.08 21.01 22.84 23.41 25.08 25.91"/><path class="cls-2" d="M29.29,22.38a.87.87,0,0,0-.95-.77h-1.8v1.55h1.89C29,23.16,29.29,22.9,29.29,22.38Z"/><path class="cls-2" d="M35.3,23a.64.64,0,0,0,.26-.6.47.47,0,0,0-.26-.6,1.77,1.77,0,0,0-.68-.08H32.9v1.37h1.72A1.58,1.58,0,0,0,35.3,23Z"/><path class="cls-2" d="M47.68,8.89v1l-.52-1h-4v1l-.51-1h-5.5a5.16,5.16,0,0,0-2.41.52V8.89H30.84v.52a2.46,2.46,0,0,0-1.64-.52H15.37L14.42,11l-.94-2.15H9.1v1l-.43-1H4.89l-1.72,4-2,4.38,0,.09H5.63l0-.09L6.18,16H7.29l.52,1.38h5v-1l.43,1h2.49l.43-1v1h12V15.16h.17c.17,0,.17,0,.17.26v1.89h6.19V16.8a5.11,5.11,0,0,0,2.32.51h2.57L40,15.94h1.2l.52,1.37h5V16l.78,1.29h4V8.89ZM18.55,16.11H17.17V11.38l-.08.2h0l-2,4.53H13.82l-2.06-4.73v4.73H8.84l-.6-1.29H5.32l-.61,1.29H3.2l2.55-6H7.89l2.41,5.75V10.1h2.28l0,.08h0l1.08,2.36.78,1.77,0-.09,1.72-4.12h2.32v6Zm5.93-4.73H21.13V12.5h3.26v1.2H21.13v1.21h3.35V16.2H19.67V10.1h4.81v1.28Zm6.13,2.22h0a.43.43,0,0,1,.09.1,1.6,1.6,0,0,1,.3,1v0h0a.76.76,0,0,1,0,.15v1.2H29.72v-.69a2,2,0,0,0-.26-1.2.79.79,0,0,0-.25-.17,1.61,1.61,0,0,0-.78-.09H26.88v2.15H25.42v-6h3.27a3.4,3.4,0,0,1,1.72.25,1.47,1.47,0,0,1,.68,1.34,1.7,1.7,0,0,1-1,1.58A1.18,1.18,0,0,1,30.61,13.6Zm2.89,2.51H32v-6H33.5Zm16.76,0h-1.9l-2.74-4.55v3.78h0v.78H42.69l-.51-1.29h-3l-.51,1.38H37A3,3,0,0,1,35,15.51a3,3,0,0,1-.77-2.32A3.54,3.54,0,0,1,35,10.78a2.73,2.73,0,0,1,2.15-.68h1.37v1.28H37.11a1.59,1.59,0,0,0-1.12.35,2,2,0,0,0-.43,1.37A1.87,1.87,0,0,0,36,14.56a1.36,1.36,0,0,0,1,.35h.6l2-4.73h2.15l2.4,5.76V10.18H46.3l2.49,4.21V10.18h1.47v5.93Z"/><path class="cls-2" d="M29.38,12.6l.07-.09a.91.91,0,0,0,.12-.65.24.24,0,0,0,0-.08v0h0a.47.47,0,0,0-.26-.29,1.61,1.61,0,0,0-.69-.09H26.88v1.38H28.6a1.61,1.61,0,0,0,.69-.09.18.18,0,0,0,.07-.05h0Z"/><path class="cls-2" d="M55.32,24.7a3.37,3.37,0,0,0-.42-1.63V19.2h0V19H50.75a2.45,2.45,0,0,0-1.18.51V19h-4a2.73,2.73,0,0,0-1.72.51V19h-7v.51A3.3,3.3,0,0,0,35,19H30.32v.51a3.26,3.26,0,0,0-2-.51H23.19L22,20.23,20.87,19H13.14v8.67H20.7l1.24-1.24L23,27.62h4.81v-2h.43a5.15,5.15,0,0,0,2-.26v2.32H34.1V25.48h.17c.26,0,.26,0,.26.25v2H46.22a3.31,3.31,0,0,0,2-.52v.52h3.7A3.9,3.9,0,0,0,54,27.28,2.86,2.86,0,0,0,55.31,25a.28.28,0,0,0,0-.09h0Zm-27.06-.51H26.54v2.23H23.72l-1.65-1.89h0L22,24.45l-1.89,2H14.6v-6h5.58l1.53,1.67.32.35,0-.05,1.81-2h4.55a2.25,2.25,0,0,1,2.25,1.11,2.77,2.77,0,0,1,.07.61C30.75,23.84,29.55,24.19,28.26,24.19Zm8.59-.09a2,2,0,0,1,.26,1.12v1.2H35.65v-.77c0-.35,0-.95-.26-1.2s-.52-.26-1-.26H32.81v2.23H31.35v-6.1h3.27a3.45,3.45,0,0,1,1.72.26A1.52,1.52,0,0,1,37.11,22a1.72,1.72,0,0,1-1,1.64A1.43,1.43,0,0,1,36.85,24.1Zm5.93-2.49H39.43v1.12h3.26v1.2H39.43v1.2h3.35v1.29H38v-6.1h4.81Zm3.61,4.81H43.64V25.13h2.75A.72.72,0,0,0,47,25a.63.63,0,0,0,0-.86.77.77,0,0,0-.52-.17c-1.37-.09-3,0-3-1.89,0-.86.51-1.8,2.06-1.8h2.83V21.7H45.7a1.34,1.34,0,0,0-.6.08c-.17.09-.17.26-.17.43s.17.35.34.43a1.06,1.06,0,0,0,.52.09h.77a2.2,2.2,0,0,1,1.63.51,1.78,1.78,0,0,1,.43,1.29C48.62,25.82,47.85,26.42,46.39,26.42Zm7.39-.6a2.53,2.53,0,0,1-1.81.6H49.22V25.13H52a.76.76,0,0,0,.61-.17.63.63,0,0,0,0-.86.77.77,0,0,0-.52-.17c-1.37-.09-3,0-3-1.89a1.75,1.75,0,0,1,1.62-1.77,3.15,3.15,0,0,1,.44,0H54V21.7H51.29a1.34,1.34,0,0,0-.6.08.65.65,0,0,0-.18.43c0,.26.09.35.35.43a1,1,0,0,0,.51.09h.78a2.76,2.76,0,0,1,.92.13,1.88,1.88,0,0,1,1.2,1.36,3,3,0,0,1,0,.31A1.75,1.75,0,0,1,53.78,25.82Z"/></g></g></svg>