<svg xmlns="http://www.w3.org/2000/svg" viewBox="0 0 56.48 36.6"><defs><style>.cls-1{fill:#4e4d4d;}.cls-2{fill:#fff;}</style></defs><g id="Layer_2" data-name="Layer 2"><g id="Layer_1-2" data-name="Layer 1"><path class="cls-1" d="M1.45,0H55a1.45,1.45,0,0,1,1.45,1.45V35.15A1.46,1.46,0,0,1,55,36.6H1.45A1.45,1.45,0,0,1,0,35.15V1.45A1.45,1.45,0,0,1,1.45,0Z"/><path class="cls-2" d="M10.16,18.85a.68.68,0,0,1,0,.38.72.72,0,0,1-.22.41.68.68,0,0,1-.39.17,1.92,1.92,0,0,1-.52,0l-.36-.07a.52.52,0,0,1-.21-.06.11.11,0,0,1-.05-.08s0-.11,0-.26l.2-1,.63.12a1.68,1.68,0,0,1,.6.19A.63.63,0,0,1,10.16,18.85Zm0-2.21a2.49,2.49,0,0,0-.63-.18L9,16.36,8.8,17.54l.54.1a2.17,2.17,0,0,0,.63.05.57.57,0,0,0,.33-.16.53.53,0,0,0,.17-.3.59.59,0,0,0,0-.35A.47.47,0,0,0,10.19,16.64Zm4.71,1.47a5.62,5.62,0,1,1-5.62-5.62A5.62,5.62,0,0,1,14.9,18.11Zm-3.3-1.48a1.39,1.39,0,0,0-.79-.68l.16-.86-.82-.15-.15.8-.53-.1.15-.8-.82-.15-.15.79L7.4,15.25l-.13.67.19,0a.66.66,0,0,1,.26.08.19.19,0,0,1,.07.11.75.75,0,0,1,0,.28l-.51,2.7a1,1,0,0,1-.07.27.25.25,0,0,1-.12.08.63.63,0,0,1-.26,0l-.19,0-.13.66,1.25.24-.15.79.83.16.14-.8.47.09h.06l-.15.8.82.15.17-.87a2.25,2.25,0,0,0,.38,0,1.48,1.48,0,0,0,.75-.37,1.2,1.2,0,0,0,.36-.67,1.14,1.14,0,0,0,0-.61,1.06,1.06,0,0,0-.34-.49,2.4,2.4,0,0,0-.48-.29,1.68,1.68,0,0,0,.56-.17,1.15,1.15,0,0,0,.36-.33,1,1,0,0,0,.19-.44A1,1,0,0,0,11.6,16.63ZM22,19.37a4.13,4.13,0,0,1-4.13,4.35c-1.49,0-2.23-.64-2.23-1.75a6.13,6.13,0,0,1,.14-1.13L17,14.51h1.85l-.74,3.57h0a2.53,2.53,0,0,1,1.93-.89A1.94,1.94,0,0,1,22,19.37ZM20,19.75c0-.6-.25-1.07-.81-1.07s-1.32.68-1.54,1.76l-.11.52a2.86,2.86,0,0,0-.06.69.65.65,0,0,0,.7.69C19.28,22.33,20,20.85,20,19.75Zm2.44,3.84h1.84l1.18-6.25H23.67Zm2.5-9a1,1,0,0,0-1.06,1.05.84.84,0,0,0,.89.89,1,1,0,0,0,1.09-1A.87.87,0,0,0,25,14.62Zm4.42,1L27.52,16l-.25,1.31h-.81l-.25,1.39H27l-.49,2.49a6,6,0,0,0-.12,1.17c0,.78.52,1.34,1.62,1.34a3.58,3.58,0,0,0,1.08-.14l.22-1.45a2.85,2.85,0,0,1-.51,0,.46.46,0,0,1-.52-.53,4.74,4.74,0,0,1,.1-.79l.42-2.12h1.33l.27-1.39H29.07Zm1.05,5.57a2.42,2.42,0,0,0,2.63,2.55,4.16,4.16,0,0,0,1.78-.32V22a3.15,3.15,0,0,1-1.24.25A1.17,1.17,0,0,1,32.38,21a2.17,2.17,0,0,1,2.12-2.29,2.14,2.14,0,0,1,.85.16l.44-1.41a3.52,3.52,0,0,0-1.26-.22A3.94,3.94,0,0,0,30.45,21.16Zm11.82-1.39a3.73,3.73,0,0,1-3.73,4,2.48,2.48,0,0,1-2.64-2.59,3.74,3.74,0,0,1,3.73-3.94A2.48,2.48,0,0,1,42.27,19.77Zm-1.9,0c0-.58-.24-1.19-1-1.19-1.06,0-1.6,1.55-1.59,2.52,0,.73.36,1.21,1,1.21C39.81,22.32,40.37,20.85,40.37,19.78Zm5-5.16a1,1,0,0,0-1.06,1.05.84.84,0,0,0,.89.89,1,1,0,0,0,1.09-1A.87.87,0,0,0,45.33,14.62Zm-2.5,9h1.83l1.19-6.25H44Zm8.24-6.39a2.64,2.64,0,0,0-2.2,1.17h0l.13-1H47.34c-.08.55-.18,1.24-.33,2l-.8,4.22h1.84l.53-2.78c.25-1.37,1-2.13,1.56-2.13s.61.31.61.74a4,4,0,0,1-.07.7L50,23.59h1.84L52.56,20a8.12,8.12,0,0,0,.11-1.06A1.51,1.51,0,0,0,51.07,17.2Z"/></g></g></svg>