<svg xmlns="http://www.w3.org/2000/svg" viewBox="0 0 56.48 36.6"><defs><style>.cls-1{fill:#4e4d4d;}</style></defs><g id="Layer_2" data-name="Layer 2"><g id="Layer_1-2" data-name="Layer 1"><path class="cls-1" d="M48.94,13.41a.41.41,0,0,0-.41.41.41.41,0,1,0,.81,0A.41.41,0,0,0,48.94,13.41Zm.09.71-.17-.23v.23h-.14v-.59h.19c.14,0,.22.07.22.18a.16.16,0,0,1-.12.17l.19.24Z"/><path class="cls-1" d="M48.89,13.64h0v.15h0c.07,0,.1,0,.1-.07S49,13.64,48.89,13.64Z"/><path class="cls-1" d="M55,0H1.45A1.45,1.45,0,0,0,0,1.45v33.7A1.45,1.45,0,0,0,1.45,36.6H55a1.45,1.45,0,0,0,1.45-1.45V1.45A1.45,1.45,0,0,0,55,0ZM48.94,13.32a.51.51,0,1,1-.51.5A.5.5,0,0,1,48.94,13.32Zm-4.85.13H46c1.5,0,2.35.72,2.35,2a1.76,1.76,0,0,1-1.51,1.88l2.09,2.8H47.35l-1.8-2.67h-.16v2.67h-1.3Zm-4.53,0h3.67v1.12H40.85v1.48h2.29v1.12H40.85V19h2.38v1.12H39.56Zm-5.56,0,1.77,4.46,1.79-4.46H39L36.1,20.26h-.7l-2.82-6.81Zm-7.8,2A3.53,3.53,0,0,1,33,16.79a4.18,4.18,0,0,1-.07.72s0,.1,0,.15,0,.12-.05.18a3.53,3.53,0,0,1-6.91-1.05A3.49,3.49,0,0,1,26.2,15.42ZM23.9,13.3a3.31,3.31,0,0,1,1.6.41v1.52a2.17,2.17,0,0,0-1.63-.75,2.22,2.22,0,0,0-2.17,2.29,2.17,2.17,0,0,0,2.23,2.29,2,2,0,0,0,1.56-.73v1.52a3.5,3.5,0,0,1-1.62.39,3.44,3.44,0,0,1-3.51-3.46A3.5,3.5,0,0,1,23.9,13.3Zm-12.12,6a3.47,3.47,0,0,1-2.37.76H7.52V13.45h1.9A3.29,3.29,0,0,1,13,16.78,3.34,3.34,0,0,1,11.78,19.33Zm3.1.76h-1.3V13.45h1.3Zm2.78.16A2.58,2.58,0,0,1,15.36,19l.84-.81a1.54,1.54,0,0,0,1.42.89,1,1,0,0,0,1-.94.8.8,0,0,0-.39-.69,5,5,0,0,0-.89-.38c-1.22-.43-1.64-.9-1.64-1.82a2,2,0,0,1,2.07-1.9,3,3,0,0,1,2,.73l-.68.89A1.37,1.37,0,0,0,18,14.43c-.55,0-1,.31-1,.73s.23.55,1,.84c1.47.54,1.91,1,1.91,2.07A2.14,2.14,0,0,1,17.66,20.25ZM55.47,35.59H20.2C43,31.66,55.47,22.87,55.47,22.87Z"/><path class="cls-1" d="M10.93,15.11a2.44,2.44,0,0,0-1.77-.54H8.81V19h.35a2.45,2.45,0,0,0,1.77-.53,2.28,2.28,0,0,0,.72-1.67A2.24,2.24,0,0,0,10.93,15.11Z"/><path class="cls-1" d="M45.78,14.49h-.39v2h.37c.83,0,1.27-.36,1.27-1S46.59,14.49,45.78,14.49Z"/></g></g></svg>