<svg xmlns="http://www.w3.org/2000/svg" viewBox="0 0 56.48 36.6"><defs><style>.cls-1{fill:#c6a777;}</style></defs><g id="Layer_2" data-name="Layer 2"><g id="Layer_1-2" data-name="Layer 1"><path class="cls-1" d="M55,0H1.45A1.45,1.45,0,0,0,0,1.45v33.7A1.45,1.45,0,0,0,1.45,36.6H55a1.45,1.45,0,0,0,1.45-1.45V1.45A1.45,1.45,0,0,0,55,0ZM26.2,15.42A3.53,3.53,0,0,1,33,16.79a4.18,4.18,0,0,1-.07.72s0,.1,0,.15,0,.12-.05.18a3.53,3.53,0,0,1-6.91-1.05A3.49,3.49,0,0,1,26.2,15.42ZM23.9,13.3a3.31,3.31,0,0,1,1.6.41v1.52a2.17,2.17,0,0,0-1.63-.75,2.22,2.22,0,0,0-2.17,2.29,2.17,2.17,0,0,0,2.23,2.29,2,2,0,0,0,1.56-.73v1.52a3.5,3.5,0,0,1-1.62.39,3.44,3.44,0,0,1-3.51-3.46A3.5,3.5,0,0,1,23.9,13.3Zm-12.12,6a3.47,3.47,0,0,1-2.37.76H7.52V13.45h1.9A3.29,3.29,0,0,1,13,16.78,3.34,3.34,0,0,1,11.78,19.33Zm3.1.76h-1.3V13.45h1.3Zm2.78.16A2.58,2.58,0,0,1,15.36,19l.84-.81a1.54,1.54,0,0,0,1.42.89,1,1,0,0,0,1-.94.8.8,0,0,0-.39-.69,5,5,0,0,0-.89-.38c-1.22-.43-1.64-.9-1.64-1.82a2,2,0,0,1,2.07-1.9,3,3,0,0,1,2,.73l-.68.89A1.37,1.37,0,0,0,18,14.43c-.55,0-1,.31-1,.73s.23.55,1,.84c1.47.54,1.91,1,1.91,2.07A2.14,2.14,0,0,1,17.66,20.25ZM55.47,35.59H20.2C43,31.66,55.47,22.87,55.47,22.87Z"/></g></g></svg>