<svg xmlns="http://www.w3.org/2000/svg" viewBox="0 0 25.45 25.45"><defs><style>.cls-1{fill:#a21d54;}</style></defs><g id="Layer_2" data-name="Layer 2"><g id="Layer_1-2" data-name="Layer 1"><path class="cls-1" d="M15.16,12.73a2.44,2.44,0,1,1-2.43-2.44A2.43,2.43,0,0,1,15.16,12.73Z"/><path class="cls-1" d="M18.42,8.42A2.38,2.38,0,0,0,17,7a3.91,3.91,0,0,0-1.35-.25c-.77,0-1,0-2.95,0s-2.19,0-3,0A3.91,3.91,0,0,0,8.42,7,2.46,2.46,0,0,0,7,8.42a3.91,3.91,0,0,0-.25,1.35c0,.77,0,1,0,3s0,2.18,0,2.95A3.91,3.91,0,0,0,7,17a2.38,2.38,0,0,0,1.39,1.39,3.91,3.91,0,0,0,1.35.25c.77,0,1,0,3,0s2.18,0,2.95,0A3.91,3.91,0,0,0,17,18.42,2.38,2.38,0,0,0,18.42,17a3.91,3.91,0,0,0,.25-1.35c0-.77,0-1,0-2.95s0-2.19,0-3A3.91,3.91,0,0,0,18.42,8.42Zm-5.69,8.06a3.76,3.76,0,1,1,3.75-3.75A3.75,3.75,0,0,1,12.73,16.48Zm3.9-6.78a.88.88,0,1,1,.87-.88A.87.87,0,0,1,16.63,9.7Z"/><path class="cls-1" d="M12.73,0A12.73,12.73,0,1,0,25.45,12.73,12.73,12.73,0,0,0,12.73,0ZM20,15.74a5.43,5.43,0,0,1-.34,1.77,3.76,3.76,0,0,1-2.14,2.14,5.43,5.43,0,0,1-1.77.34c-.78,0-1,0-3,0s-2.24,0-3,0a5.49,5.49,0,0,1-1.77-.34,3.6,3.6,0,0,1-1.3-.84,3.73,3.73,0,0,1-.84-1.3,5.43,5.43,0,0,1-.34-1.77c0-.78,0-1,0-3s0-2.24,0-3A5.43,5.43,0,0,1,5.8,7.94,3.68,3.68,0,0,1,7.94,5.8a5.43,5.43,0,0,1,1.77-.34c.78,0,1,0,3,0s2.23,0,3,0a5.43,5.43,0,0,1,1.77.34,3.73,3.73,0,0,1,1.3.84,3.6,3.6,0,0,1,.84,1.3A5.43,5.43,0,0,1,20,9.71c0,.78,0,1,0,3S20,15,20,15.74Z"/></g></g></svg>