<svg xmlns="http://www.w3.org/2000/svg" viewBox="0 0 34.34 34.34"><defs><style>.cls-1{fill:#c6a777;}</style></defs><g id="Layer_2" data-name="Layer 2"><g id="Layer_1-2" data-name="Layer 1"><path class="cls-1" d="M20.46,17.17a3.29,3.29,0,1,1-3.29-3.29A3.29,3.29,0,0,1,20.46,17.17Z"/><path class="cls-1" d="M24.86,11.36a3.08,3.08,0,0,0-.74-1.14A3.12,3.12,0,0,0,23,9.48a5.79,5.79,0,0,0-1.84-.34c-1,0-1.35-.05-4-.05s-2.94,0-4,.05a5.65,5.65,0,0,0-1.83.34,3.27,3.27,0,0,0-1.88,1.88,5.71,5.71,0,0,0-.34,1.83c0,1-.05,1.35-.05,4s0,2.94.05,4A5.79,5.79,0,0,0,9.48,23a3.12,3.12,0,0,0,.74,1.13,3.08,3.08,0,0,0,1.14.74,5.65,5.65,0,0,0,1.83.34c1,0,1.35.05,4,.05s2.95,0,4-.05A5.79,5.79,0,0,0,23,24.86,3.31,3.31,0,0,0,24.86,23a5.79,5.79,0,0,0,.34-1.84c0-1,.05-1.35.05-4s0-2.94-.05-4A5.71,5.71,0,0,0,24.86,11.36ZM17.17,22.23a5.06,5.06,0,1,1,5.06-5.06A5.05,5.05,0,0,1,17.17,22.23Zm5.26-9.14a1.19,1.19,0,1,1,1.19-1.18A1.18,1.18,0,0,1,22.43,13.09Z"/><path class="cls-1" d="M17.17,0A17.17,17.17,0,1,0,34.34,17.17,17.17,17.17,0,0,0,17.17,0ZM27,21.24a7.17,7.17,0,0,1-.46,2.39,5,5,0,0,1-2.88,2.88,7.17,7.17,0,0,1-2.39.46c-1.06.05-1.39.06-4.07.06s-3,0-4.06-.06a7.18,7.18,0,0,1-2.4-.46,5.1,5.1,0,0,1-2.88-2.88,7.43,7.43,0,0,1-.46-2.39c0-1.06-.06-1.39-.06-4.07s0-3,.06-4.06a7.18,7.18,0,0,1,.46-2.4,5.1,5.1,0,0,1,2.88-2.88,7.18,7.18,0,0,1,2.4-.46c1.05,0,1.38-.06,4.06-.06s3,0,4.07.06a7.17,7.17,0,0,1,2.39.46,5,5,0,0,1,2.88,2.88,7.18,7.18,0,0,1,.46,2.4c.05,1.05.06,1.38.06,4.06S27,20.18,27,21.24Z"/></g></g></svg>