<svg xmlns="http://www.w3.org/2000/svg" viewBox="0 0 56.48 36.6"><defs><style>.cls-1{fill:#4e4d4d;}</style></defs><g id="Layer_2" data-name="Layer 2"><g id="Layer_1-2" data-name="Layer 1"><path class="cls-1" d="M15.05,15.87a5.32,5.32,0,0,0-1.87.34L13,17.54a4.9,4.9,0,0,1,1.68-.27c.57,0,1,.07,1,.53a1,1,0,0,1-.05.39s-.45,0-.66,0c-1.33,0-2.74.57-2.74,2.29a1.46,1.46,0,0,0,1.49,1.66,2.05,2.05,0,0,0,1.59-.7l0,.59h1.36l.6-4.25A1.83,1.83,0,0,0,15.05,15.87Zm-.76,4.94a.56.56,0,0,1-.61-.58c0-.42.23-.93,1.36-.93a1.44,1.44,0,0,1,.34,0C15.41,19.59,15.22,20.81,14.29,20.81Z"/><path class="cls-1" d="M20,17.3c.22,0,1.05.07,1.05.07l.2-1.36a6.72,6.72,0,0,0-1.43-.13c-1.14,0-2.3.46-2.3,2,0,1.77,1.94,1.59,1.94,2.33,0,.5-.54.54-1,.54a4.84,4.84,0,0,1-1.37-.24l-.21,1.35a5,5,0,0,0,1.74.19c.34,0,2.33.09,2.33-2s-1.84-1.54-1.84-2.31C19.11,17.42,19.41,17.3,20,17.3Z"/><path class="cls-1" d="M23.21,17.47H24l.2-1.45h-.77l.16-.9H22.06s-.91,5.08-.91,5.69a1.15,1.15,0,0,0,1.23,1.31,3.81,3.81,0,0,0,1.16-.21l.19-1.31c-.1,0-.26,0-.4,0-.53,0-.59-.29-.56-.5Z"/><path class="cls-1" d="M29.67,9.05H26.92c-.37.5-.72,1-1,1.55H30.8A14.27,14.27,0,0,0,29.67,9.05Z"/><path class="cls-1" d="M51.16,26.51l-.07-.1-.05,0a.14.14,0,0,0,.11-.05.13.13,0,0,0,0-.09.13.13,0,0,0,0-.08.1.1,0,0,0-.06-.05h-.3v.5h.08v-.21h0l.06,0,.09.12,0,.08h.1ZM51,26.32h-.1v-.15h.17l0,0s0,0,0,0a.08.08,0,0,1,0,.05S51,26.32,51,26.32Z"/><path class="cls-1" d="M31.63,12.12H25c-.43.8-.7,1.41-.78,1.56h8A13.37,13.37,0,0,0,31.63,12.12Z"/><polygon class="cls-1" points="10.29 14.64 8.77 19.15 8.69 14.64 6.44 14.64 5.21 21.99 6.7 21.99 7.63 16.45 7.77 21.99 8.84 21.99 10.82 16.45 9.94 21.99 11.52 21.99 12.74 14.64 10.29 14.64"/><path class="cls-1" d="M40.07,15.87a5.32,5.32,0,0,0-1.87.34L38,17.54a4.93,4.93,0,0,1,1.69-.27c.57,0,1,.07,1,.53a1,1,0,0,1,0,.39s-.45,0-.67,0c-1.33,0-2.73.57-2.73,2.29a1.46,1.46,0,0,0,1.49,1.66,2,2,0,0,0,1.58-.7l-.05.59h1.36l.61-4.25A1.83,1.83,0,0,0,40.07,15.87Zm-.76,4.94a.56.56,0,0,1-.61-.58c0-.42.23-.93,1.36-.93a1.44,1.44,0,0,1,.34,0C40.43,19.59,40.24,20.81,39.31,20.81Z"/><path class="cls-1" d="M51.21,21.32a.39.39,0,0,0-.18-.18.46.46,0,0,0-.23-.06.53.53,0,0,0-.23.06.42.42,0,0,0-.17.18.47.47,0,0,0,0,.46.44.44,0,0,0,.4.24A.5.5,0,0,0,51,22a.49.49,0,0,0,.17-.18.47.47,0,0,0,0-.46Zm-.06.42a.54.54,0,0,1-.15.15.45.45,0,0,1-.19.05.46.46,0,0,1-.2-.05.34.34,0,0,1-.14-.15.32.32,0,0,1,0-.19.37.37,0,0,1,0-.2.29.29,0,0,1,.15-.14.32.32,0,0,1,.19-.05.45.45,0,0,1,.19.05.32.32,0,0,1,.14.14.39.39,0,0,1,.06.2A.41.41,0,0,1,51.15,21.74Z"/><path class="cls-1" d="M51,21.71l-.07-.1,0,0a.18.18,0,0,0,.1,0,.13.13,0,0,0,0-.1.19.19,0,0,0,0-.07.18.18,0,0,0-.07-.05.29.29,0,0,0-.12,0H50.6v.51h.08v-.22h0l.07,0a1.18,1.18,0,0,1,.08.12l0,.08H51Zm-.18-.19h-.1v-.15h.18s0,0,0,0,0,0,0,0,0,0,0,.05S50.83,21.52,50.78,21.52Z"/><path class="cls-1" d="M45.31,16c-.69,0-1.2.94-1.2.94l.14-.87H42.81l-1,6h1.58c.45-2.55.53-4.62,1.6-4.25A5.74,5.74,0,0,1,45.61,16,1.71,1.71,0,0,0,45.31,16Z"/><path class="cls-1" d="M49.29,14.65,49,16.72a2,2,0,0,0-1.49-.81c-1.42,0-2.59,1.71-2.59,3.67,0,1.26.63,2.5,1.91,2.5a2,2,0,0,0,1.44-.64l-.07.55h1.5l1.18-7.34Zm-1.95,5.93c-.56,0-.82-.46-.82-1.2,0-1.19.54-2,1.22-2s.83.38.83,1.28S48.17,20.58,47.34,20.58Z"/><path class="cls-1" d="M55,0H1.45A1.45,1.45,0,0,0,0,1.45v33.7A1.45,1.45,0,0,0,1.45,36.6H55a1.45,1.45,0,0,0,1.45-1.45V1.45A1.45,1.45,0,0,0,55,0ZM51.41,26.58a.4.4,0,0,1-.17.17.44.44,0,0,1-.24.07.39.39,0,0,1-.23-.07.4.4,0,0,1-.17-.17.48.48,0,0,1-.07-.23.55.55,0,0,1,.07-.24.46.46,0,0,1,.17-.17.49.49,0,0,1,.23-.06.46.46,0,0,1,.23.06.42.42,0,0,1,.18.17.53.53,0,0,1,.06.24A.46.46,0,0,1,51.41,26.58Zm1.05-8.28A14.49,14.49,0,0,1,28.24,29.05,14.49,14.49,0,1,1,18.43,3.81h.09a14.42,14.42,0,0,1,9.72,3.74A14.49,14.49,0,0,1,52.46,18.29Z"/><path class="cls-1" d="M26.75,27.47a14.82,14.82,0,0,0,1.49,1.58l0,0h0a14.44,14.44,0,0,0,1.48-1.55Z"/><path class="cls-1" d="M28.73,19.51a11.22,11.22,0,0,0,.2-1.41,2.07,2.07,0,0,0-2.2-2.25c-1.55,0-2.7,1.67-2.7,3.56a2.42,2.42,0,0,0,2.66,2.7,3.92,3.92,0,0,0,1.63-.25l.28-1.49a4.79,4.79,0,0,1-1.64.38c-1.66,0-1.37-1.24-1.37-1.24Zm-2-2.28c.87,0,.7,1,.7,1.06H25.73C25.73,18.19,25.89,17.23,26.74,17.23Z"/><path class="cls-1" d="M36,16.05a2.74,2.74,0,0,1,1.41.44l.25-1.63a5.47,5.47,0,0,0-1.73-.38c-1.79,0-3.52,1.55-3.52,4.45,0,1.92.94,3.19,2.78,3.19a7.18,7.18,0,0,0,1.35-.21l.27-1.68a3.65,3.65,0,0,1-1.27.38A1.53,1.53,0,0,1,34,18.88C34,17.05,34.92,16.05,36,16.05Z"/><path class="cls-1" d="M24.82,24.42A14.51,14.51,0,0,0,25.67,26h5.15a13.54,13.54,0,0,0,.84-1.55Z"/><path class="cls-1" d="M32.35,16c-.69,0-1.2.94-1.2.94l.14-.87H29.85l-1,6h1.58c.45-2.56.54-4.63,1.61-4.25A5.78,5.78,0,0,1,32.65,16,1.57,1.57,0,0,0,32.35,16Z"/></g></g></svg>