<svg xmlns="http://www.w3.org/2000/svg" viewBox="0 0 124.68 124.68"><defs><style>.cls-1{fill:#c6a777;}.cls-2{fill-rule:evenodd;}</style></defs><g id="Layer_2" data-name="Layer 2"><g id="Layer_1-2" data-name="Layer 1"><circle class="cls-1" cx="62.34" cy="62.34" r="62.34"/><path class="cls-2" d="M57.4,39.86l-3.27,4.51c-1.64,2.26-1.14,6.27,1.11,7.89l6.07,4.38c1,.75,1.12,1.5.63,2.29l.88.66,3.08-4.26a5.78,5.78,0,0,0-1.09-8.27L58.69,42.6a1.53,1.53,0,0,1-.4-2.11l-.89-.63Zm5.26-19.94-5.1,7c-2.39,3.31-1.52,9,1.74,11.35l8.39,6.16c1.7,1.24,1.92,4.42.68,6.05l.71.53,5.79-8.14c2.59-3.65,2.44-9.05-1.64-12l-9-6.51a2.72,2.72,0,0,1-.84-3.94l-.77-.54ZM49.22,64.14H56l1.2,4.1h11l1.21-4.1h6.76l-.89-3H50.11l-.89,3ZM39.44,16.47h45.8a5.41,5.41,0,0,1,5.39,5.4v80.94a5.4,5.4,0,0,1-5.39,5.39H39.44a5.4,5.4,0,0,1-5.39-5.39V21.87a5.41,5.41,0,0,1,5.39-5.4ZM89.15,90.21v12.6a3.92,3.92,0,0,1-3.91,3.91H39.44a3.92,3.92,0,0,1-3.91-3.91V90.21Zm-44.6,7-2-5h-1l-2,5h1.13L41,96.05H43l.42,1.11Zm-1.94-2.07H41.4l.34-.91c.06-.14.11-.29.16-.43L42,93.4c0,.1.06.22.1.35s.1.29.16.43l.34.91ZM49,93a2.79,2.79,0,0,0-1.26-.82,2.88,2.88,0,0,0-.68-.08,2.23,2.23,0,0,0-1.69.72,2.65,2.65,0,0,0-.48.82,2.93,2.93,0,0,0-.17,1,3.29,3.29,0,0,0,.16,1.07,2.3,2.3,0,0,0,.47.81,2.08,2.08,0,0,0,.73.52,2.4,2.4,0,0,0,.95.18,2.61,2.61,0,0,0,2.06-1l-.75-.67a1.86,1.86,0,0,1-1.28.65,1.12,1.12,0,0,1-.53-.12,1.32,1.32,0,0,1-.4-.34,1.34,1.34,0,0,1-.24-.51,2.06,2.06,0,0,1-.09-.62A2.11,2.11,0,0,1,45.9,94a1.41,1.41,0,0,1,.24-.51,1,1,0,0,1,.39-.33,1.29,1.29,0,0,1,.53-.11,1.75,1.75,0,0,1,1.22.6L49,93Zm10,4.19-1.17-1.9a2.1,2.1,0,0,0,.88-.59,1.57,1.57,0,0,0,.25-.93,1.68,1.68,0,0,0-.14-.7,1.5,1.5,0,0,0-.4-.5,1.58,1.58,0,0,0-.58-.29,2.28,2.28,0,0,0-.7-.1H54.72v5h1.06v-1.8l.94,0,1.1,1.76Zm-1.13-3.4c0,.44-.25.65-.75.65H55.78V93.12h1.38a.9.9,0,0,1,.55.15.55.55,0,0,1,.2.49Zm5.57,3.4v-1H60.75V95H63V94h-2.2v-.87h2.62v-1H59.7v5Zm5.07-2.5a3.11,3.11,0,0,0-.2-1.17A2.05,2.05,0,0,0,67,92.28a3.87,3.87,0,0,0-1-.13H64.27v5h1.58a3.38,3.38,0,0,0,1-.14,2.41,2.41,0,0,0,.87-.45,2.28,2.28,0,0,0,.61-.78,2.62,2.62,0,0,0,.23-1.13Zm-1.09,0a1.75,1.75,0,0,1-.1.62,1.28,1.28,0,0,1-.29.49,1.47,1.47,0,0,1-.5.31,2.27,2.27,0,0,1-.72.11h-.53V93.12h.56a1.61,1.61,0,0,1,1.21.39,1.58,1.58,0,0,1,.37,1.15Zm3.17,2.5v-5H69.57v5Zm4.92-4v-1H71.46v1H73v4h1v-4Zm9.53,1.52a2.92,2.92,0,0,0-.2-1.17,2,2,0,0,0-.55-.77,2.14,2.14,0,0,0-.83-.44,3.8,3.8,0,0,0-1-.13H80.8v5h1.58a3.4,3.4,0,0,0,1-.14,2.29,2.29,0,0,0,.86-.45,2.06,2.06,0,0,0,.61-.78,2.48,2.48,0,0,0,.23-1.13Zm-1.08,0a1.75,1.75,0,0,1-.1.62,1.42,1.42,0,0,1-.29.49,1.51,1.51,0,0,1-.51.31,2.18,2.18,0,0,1-.72.11h-.52V93.12h.56A1.36,1.36,0,0,1,84,94.66Zm-4,2.5v-1H77.29V95h2.19V94H77.29v-.87H79.9v-1H76.23v5Zm-8.84,6.48v-1H68.45v-1.21h2.19v-1H68.45v-.86h2.61v-1H67.39v5ZM53.89,93a2.77,2.77,0,0,0-1.27-.82,2.73,2.73,0,0,0-.67-.08,2.23,2.23,0,0,0-1.69.72,2.47,2.47,0,0,0-.48.82,2.93,2.93,0,0,0-.17,1,3.29,3.29,0,0,0,.16,1.07,2.3,2.3,0,0,0,.47.81,2.08,2.08,0,0,0,.73.52,2.4,2.4,0,0,0,1,.18,2.62,2.62,0,0,0,2.06-1l-.75-.67a1.86,1.86,0,0,1-1.28.65,1.12,1.12,0,0,1-.53-.12,1.32,1.32,0,0,1-.4-.34,1.34,1.34,0,0,1-.24-.51,2.06,2.06,0,0,1-.09-.62,2.11,2.11,0,0,1,.09-.64,1.41,1.41,0,0,1,.24-.51,1,1,0,0,1,.39-.33,1.29,1.29,0,0,1,.53-.11,1.77,1.77,0,0,1,1.22.6l.73-.7Zm-4.32,9a1.09,1.09,0,0,0-.21-.69,1.21,1.21,0,0,0-.51-.41,1,1,0,0,0,.4-.4,1.07,1.07,0,0,0,.14-.57A1.17,1.17,0,0,0,49,99a1.93,1.93,0,0,0-1.19-.34H45.4v5h2.34a2.56,2.56,0,0,0,.75-.11,1.52,1.52,0,0,0,.58-.3,1.46,1.46,0,0,0,.37-.51,1.75,1.75,0,0,0,.13-.7Zm-1.22-2a.45.45,0,0,1-.13.34.61.61,0,0,1-.45.13H46.41v-1h1.31a.77.77,0,0,1,.48.12.43.43,0,0,1,.15.36Zm.16,2a.65.65,0,0,1-.18.48.74.74,0,0,1-.55.18H46.41v-1.3h1.37c.49,0,.73.21.73.64Zm5.92-.61v-2.8h-1v2.82a1.51,1.51,0,0,1-.28,1,1,1,0,0,1-.78.35.91.91,0,0,1-.77-.36,1.46,1.46,0,0,1-.28-1v-2.8h-1v2.82a2.86,2.86,0,0,0,.15,1,2,2,0,0,0,.42.72,1.78,1.78,0,0,0,.66.44,2.34,2.34,0,0,0,.85.15,2,2,0,0,0,1.54-.6,2.45,2.45,0,0,0,.55-1.7Zm4.73.7A1.23,1.23,0,0,0,58.6,101a1.88,1.88,0,0,0-.55-.27l-.61-.17-.51-.13a1.18,1.18,0,0,1-.31-.12.36.36,0,0,1-.17-.15.39.39,0,0,1-.05-.2.29.29,0,0,1,0-.16.33.33,0,0,1,.12-.15,1,1,0,0,1,.23-.1,1.16,1.16,0,0,1,.35,0,1.45,1.45,0,0,1,.63.13,1.94,1.94,0,0,1,.54.39l.74-.71a2.85,2.85,0,0,0-.82-.58,2.48,2.48,0,0,0-1.06-.2,2.34,2.34,0,0,0-.71.1,1.63,1.63,0,0,0-.59.29,1.33,1.33,0,0,0-.39.46,1.22,1.22,0,0,0-.14.61,1.48,1.48,0,0,0,.11.63,1.2,1.2,0,0,0,.33.41,2,2,0,0,0,.52.27,3.57,3.57,0,0,0,.65.19,5.25,5.25,0,0,1,.58.15,1.51,1.51,0,0,1,.35.15.46.46,0,0,1,.17.17.54.54,0,0,1-.17.63,1.46,1.46,0,0,1-.68.13,1.87,1.87,0,0,1-.71-.14,1.51,1.51,0,0,1-.61-.44l-.74.65a1.94,1.94,0,0,0,.82.66,2.68,2.68,0,0,0,1.18.25,3.09,3.09,0,0,0,.91-.12,1.58,1.58,0,0,0,.62-.32,1.24,1.24,0,0,0,.37-.51,1.67,1.67,0,0,0,.12-.65ZM61,103.64v-5H60v5Zm5.24,0v-5h-1V101c0,.1,0,.21,0,.32v.51a1.41,1.41,0,0,0-.16-.26l-.2-.31-1.82-2.65h-1v5h1v-2.21a2.54,2.54,0,0,0,0-.26v-.62a2,2,0,0,1,0-.21l.16.26.2.3,1.89,2.74Zm9.11-1.52a1.33,1.33,0,0,0-.15-.67,1.31,1.31,0,0,0-.4-.44,2,2,0,0,0-.55-.27l-.62-.17-.5-.13a1.27,1.27,0,0,1-.32-.12.42.42,0,0,1-.17-.15.4.4,0,0,1,0-.2.41.41,0,0,1,0-.16.45.45,0,0,1,.13-.15.83.83,0,0,1,.23-.1,1.09,1.09,0,0,1,.34,0,1.47,1.47,0,0,1,.64.13,1.9,1.9,0,0,1,.53.39l.74-.71a2.61,2.61,0,0,0-.82-.58,2.46,2.46,0,0,0-1-.2,2.41,2.41,0,0,0-.72.1,1.58,1.58,0,0,0-.58.29,1.36,1.36,0,0,0-.4.46,1.34,1.34,0,0,0-.14.61,1.48,1.48,0,0,0,.12.63,1.2,1.2,0,0,0,.33.41,1.76,1.76,0,0,0,.51.27,4.11,4.11,0,0,0,.65.19,5.51,5.51,0,0,1,.59.15,1.73,1.73,0,0,1,.35.15.42.42,0,0,1,.16.17.46.46,0,0,1,0,.21.45.45,0,0,1-.22.42,1.43,1.43,0,0,1-.68.13,1.87,1.87,0,0,1-.71-.14,1.66,1.66,0,0,1-.61-.44l-.74.65a2,2,0,0,0,.83.66,2.64,2.64,0,0,0,1.17.25,3,3,0,0,0,.91-.12,1.7,1.7,0,0,0,.63-.32,1.24,1.24,0,0,0,.37-.51,1.67,1.67,0,0,0,.11-.65Zm4.43,0a1.23,1.23,0,0,0-.16-.67,1.21,1.21,0,0,0-.4-.44,2,2,0,0,0-.55-.27l-.61-.17-.51-.13a1.44,1.44,0,0,1-.32-.12.34.34,0,0,1-.16-.15.39.39,0,0,1,0-.2.29.29,0,0,1,0-.16.33.33,0,0,1,.12-.15,1,1,0,0,1,.23-.1,1.16,1.16,0,0,1,.35,0,1.45,1.45,0,0,1,.63.13A1.94,1.94,0,0,1,79,100l.74-.71a2.85,2.85,0,0,0-.82-.58,2.51,2.51,0,0,0-1.06-.2,2.46,2.46,0,0,0-.72.1,1.67,1.67,0,0,0-.58.29A1.34,1.34,0,0,0,76,100a1.48,1.48,0,0,0,.12.63,1.2,1.2,0,0,0,.33.41,1.76,1.76,0,0,0,.51.27,4.11,4.11,0,0,0,.65.19,5.51,5.51,0,0,1,.59.15,1.73,1.73,0,0,1,.35.15.46.46,0,0,1,.17.17.46.46,0,0,1,0,.21.45.45,0,0,1-.22.42,1.43,1.43,0,0,1-.68.13,1.91,1.91,0,0,1-.71-.14,1.55,1.55,0,0,1-.6-.44l-.74.65a1.94,1.94,0,0,0,.82.66,2.65,2.65,0,0,0,1.18.25,3,3,0,0,0,.9-.12,1.56,1.56,0,0,0,.63-.32,1.24,1.24,0,0,0,.37-.51,1.67,1.67,0,0,0,.12-.65ZM49.73,82.84h-4V79.45h4c3,0,2.8,3.39,0,3.39Zm13.87,0H59.55V79.45H63.6c3,0,2.8,3.39,0,3.39Zm13.88,0h-4V79.45h4c3,0,2.79,3.39,0,3.39Zm-28-6H45.68V73.63h3.63a1.59,1.59,0,1,1,.14,3.17Zm13.88,0H59.55V73.63h3.63a1.59,1.59,0,1,1,.15,3.17Zm13.87,0H73.43V73.63h3.63a1.59,1.59,0,1,1,.14,3.17ZM55,81C54.74,79,54,78.54,52.39,77.85a3.51,3.51,0,0,0,1.91-3.12c0-2.8-2.29-3.94-4.79-3.94h-7V85.65h6.92c3,0,6.09-1.29,5.59-4.69ZM68.9,81c-.29-1.95-1.07-2.42-2.64-3.11a3.5,3.5,0,0,0,1.92-3.12c0-2.8-2.3-3.94-4.8-3.94h-7V85.65h6.93c2.95,0,6.09-1.29,5.58-4.69Zm13.88,0c-.29-1.95-1.08-2.42-2.65-3.11a3.5,3.5,0,0,0,1.92-3.12c0-2.8-2.29-3.94-4.79-3.94h-7V85.65h6.92c3,0,6.09-1.29,5.59-4.69Zm1.34,4.2a.41.41,0,0,0,0-.16.26.26,0,0,0-.08-.13.58.58,0,0,0-.15-.11,1.33,1.33,0,0,0-.24-.1l-.21-.09a.32.32,0,0,1-.13-.08.16.16,0,0,1-.06-.08.25.25,0,0,1,0-.09.36.36,0,0,1,0-.1.13.13,0,0,1,.06-.07s.06,0,.1-.06l.15,0a.73.73,0,0,1,.23,0,1,1,0,0,1,.19.12l.12-.15a1,1,0,0,0-.23-.13.84.84,0,0,0-.29,0,.73.73,0,0,0-.22,0,.39.39,0,0,0-.17.09.28.28,0,0,0-.11.13.34.34,0,0,0,0,.18.78.78,0,0,0,0,.16.38.38,0,0,0,.09.13l.15.1.23.1.2.08a.74.74,0,0,1,.13.08l.07.09a.36.36,0,0,1,0,.1.27.27,0,0,1-.1.21.41.41,0,0,1-.28.08.64.64,0,0,1-.24,0,.8.8,0,0,1-.21-.15L83,85.4a.92.92,0,0,0,.25.17,1,1,0,0,0,.57,0,.77.77,0,0,0,.18-.1.42.42,0,0,0,.11-.15.58.58,0,0,0,0-.19Zm1.79.44V83.93H85.7l-.42,1,0,.08,0,.09a.36.36,0,0,0,0,.09.64.64,0,0,1,0,.07.25.25,0,0,0,0-.07l0-.08,0-.09,0-.09-.41-1h-.21V85.6h.18V84.29l0,.06,0,.07,0,.08,0,.07.46,1.08.46-1.08,0-.07,0-.08s0,0,0-.07l0-.06V85.6Z"/></g></g></svg>