<svg xmlns="http://www.w3.org/2000/svg" viewBox="0 0 124.68 124.68"><defs><style>.cls-1{fill:#4e4d4d;}.cls-2{isolation:isolate;font-size:6.98px;fill:#fffefe;font-family:Verdana-Bold, Verdana;font-weight:700;}.cls-3{fill:#f1f1f2;}</style></defs><g id="Layer_2" data-name="Layer 2"><g id="Layer_1-2" data-name="Layer 1"><circle class="cls-1" cx="62.34" cy="62.34" r="62.34"/><text class="cls-2" transform="translate(21.15 97.97)">“Best Online Retailer”</text><text class="cls-2" transform="translate(36.3 106.95)">2020 WINNER</text><path class="cls-3" d="M70.12,68c0,4-1.24,3.12-5.73,3.12s-5.67.72-5.67-3.12V55.46H48v7.85c0,7.88,4.27,12,16.27,12,12.22,0,16.33-4.14,16.33-12V55.46H70.12Z"/><path class="cls-3" d="M58.72,46.09A4.27,4.27,0,0,1,61.8,42a4.14,4.14,0,0,0,1.06-3.15V33.89c-11,.31-14.9,4.42-14.9,12v2.19H58.72Z"/><path class="cls-3" d="M66,33.9v4.9h0a4.17,4.17,0,0,0,1,3.14,4.26,4.26,0,0,1,3.1,4.15v2H80.56V45.89C80.56,38.39,76.83,34.29,66,33.9Z"/><path class="cls-3" d="M51,49.25h1l.65,4.8H51.54l-.08-.74H50l-.35.74h-1Zm.42,3.17-.2-1.65-.78,1.65Z"/><path class="cls-3" d="M53.89,49.28h1.29l.35,3,1.44-3h1.28l-.84,4.77h-1l.5-2.85-1.36,2.85h-.73l-.38-2.87L54,54.05h-.92Z"/><path class="cls-3" d="M58.84,49.28h2.87l-.16.92H59.66l-.16.95h1.79l-.16.92H59.34l-.2,1.08H61l-.15.9H58Z"/><path class="cls-3" d="M63.39,52.46h-.61l-.28,1.59h-1l.84-4.77H63.8c1.28,0,1.65.51,1.65,1.21a2.69,2.69,0,0,1,0,.47,1.59,1.59,0,0,1-1.05,1.42l.44,1.67h-1Zm.38-.89c.35,0,.55-.15.64-.63,0-.1,0-.19,0-.26,0-.33-.16-.51-.68-.51h-.57l-.24,1.4Z"/><path class="cls-3" d="M66.35,49.28h1l-.85,4.77h-1Z"/><path class="cls-3" d="M67.44,52.44a5.27,5.27,0,0,1,.1-.93c.26-1.45.81-2.29,2.24-2.29a2.38,2.38,0,0,1,1.27.34l-.57.88a1.71,1.71,0,0,0-.86-.23c-.54,0-.86.25-1.06,1.43a4.57,4.57,0,0,0-.08.75c0,.59.24.81.78.81A1.4,1.4,0,0,0,70,53l.44.76a2.51,2.51,0,0,1-1.33.34A1.48,1.48,0,0,1,67.44,52.44Z"/><path class="cls-3" d="M73,49.25h1l.65,4.8H73.63l-.08-.74H72.08l-.35.74h-1Zm.42,3.17-.2-1.65-.78,1.65Z"/><path class="cls-3" d="M74.8,51c.44-.22.52-.29.56-.55h-.49l.21-1.18h1.11l-.18,1a1.3,1.3,0,0,1-1,1.22Z"/><path class="cls-3" d="M75.73,53.62l.55-.76a2.28,2.28,0,0,0,1.32.41c.49,0,.7-.23.7-.6s-.22-.44-.85-.69-1-.64-1-1.21c0-1.17.8-1.55,1.74-1.55a2.94,2.94,0,0,1,1.48.33l-.49.86a2.09,2.09,0,0,0-1-.27c-.44,0-.69.16-.69.52s.17.38.63.56c.86.35,1.26.66,1.26,1.31,0,1.1-.67,1.58-1.71,1.58A3.17,3.17,0,0,1,75.73,53.62Z"/><path class="cls-3" d="M13.91,71.22l5.24-8.3c3.54,1.69,6.47,3.23,11.16,3.23,4,0,6.75-1.49,6.75-5.45s-2.73-5.45-6.14-5.45a12.53,12.53,0,0,0-5.79,1.55l-9-2.32,1.28-20H45.91v8.39H27l-.19,7.17c1.47-.9,3.91-3,8.66-3,8.78,0,13.33,4.26,13.33,13.46,0,9.88-6.93,15.16-17.66,15.16C24.09,75.65,18.67,73.49,13.91,71.22Z"/><path class="cls-3" d="M24.2,31.51h-.62l-1.25-4.42-.92,4.42h-.86L18.88,21.6H20.3l.92,6.19L22,21.6h.77l.8,6.19.82-6.19h1.4Z"/><path class="cls-3" d="M26.17,31.51V23.29h1.34v8.22Z"/><path class="cls-3" d="M31.52,31.52l-1.87-4.17v4.16h-1.3V23.3l.67,0,1.86,4v-4h1.31V31.5Z"/><path class="cls-3" d="M33,31.51V23.29H36v1.44H34.29v1.86h1.5V28h-1.5v2.09H36v1.44Z"/><path class="cls-3" d="M37.68,31.51V21.6h3.1V23H39v2.69h1.49v1.39H39v3h1.75v1.44Z"/><path class="cls-3" d="M44.78,31.52l-1.86-4.17v4.16H41.61V23.3l.68,0,1.86,4v-4h1.31V31.5Z"/><path class="cls-3" d="M48.61,24.74v6.77H47.26V24.74H46.17V23.29H49.7v1.45Z"/><path class="cls-3" d="M52.91,31.51V28.07H51.76v3.44H50.41V23.29h1.35v3.34h1.15V23.29h1.34v8.22Z"/><path class="cls-3" d="M57.08,31.62c-1.06,0-1.86-.69-1.86-2.32v-6h1.35v6.14c0,.51.2.8.56.8s.53-.28.53-.8V23.29H59v6C59,31,58.17,31.62,57.08,31.62Z"/><path class="cls-3" d="M61.43,31.63a2.91,2.91,0,0,1-1.75-.69l.43-1.4a2,2,0,0,0,1.22.64c.39,0,.55-.3.55-.69s-.19-.76-.92-1.65a3.81,3.81,0,0,1-1.18-2.45,2,2,0,0,1,1.84-2.22,2.3,2.3,0,0,1,1.47.5l-.45,1.41a1.46,1.46,0,0,0-.94-.46c-.34,0-.56.25-.56.65s.19.64.87,1.45a3.87,3.87,0,0,1,1.23,2.63C63.24,30.59,62.62,31.63,61.43,31.63Z"/><path class="cls-3" d="M63.9,31.51V23.29h1.35v8.22Z"/><path class="cls-3" d="M68.88,31.51l-.26-1.37H67.39l-.26,1.37h-1.3l1.67-8.24h1l1.66,8.24ZM68,26.37l-.37,2.4h.74Z"/><path class="cls-3" d="M72.25,31.63a2.93,2.93,0,0,1-1.76-.69l.43-1.4a2,2,0,0,0,1.22.64c.39,0,.56-.3.56-.69s-.2-.76-.93-1.65a3.79,3.79,0,0,1-1.17-2.45,2,2,0,0,1,1.84-2.22,2.3,2.3,0,0,1,1.47.5l-.45,1.41a1.48,1.48,0,0,0-.95-.46c-.34,0-.55.25-.55.65s.18.64.86,1.45a3.87,3.87,0,0,1,1.23,2.63C74.05,30.59,73.44,31.63,72.25,31.63Z"/><path class="cls-3" d="M76.78,24.74v6.77H75.44V24.74H74.35V23.29h3.53v1.45Z"/><path class="cls-3" d="M82.37,62.48h4c2.57,0,3.39,1,3.39,2.36a2,2,0,0,1-1.08,2c.92.32,1.29,1,1.29,2.19,0,1.73-1.27,2.57-3.53,2.57H82.37Zm3.91,3.71c.65,0,.8-.41.8-.9s-.13-.8-.8-.8H85v1.7Zm.14,3.48c.58,0,.85-.32.85-.89s-.26-.85-.86-.85H85v1.74Z"/><path class="cls-3" d="M90.4,62.48h6v2.23H92.78V65.9H96.3v2.17H92.78v1.36h3.67V71.6h-6Z"/><path class="cls-3" d="M96.83,70.83,98.06,69a4.56,4.56,0,0,0,2.47.67c1,0,1.15-.23,1.15-.65,0-.63-.32-.64-1.82-1-1.79-.44-2.57-1.2-2.57-2.74,0-2,1.26-2.89,3.43-2.89a6.52,6.52,0,0,1,3,.63l-1.06,2a4.32,4.32,0,0,0-1.93-.42c-.8,0-1.12.1-1.12.57s.34.55,1.29.78c2.3.57,3.1,1.12,3.1,3,0,1.69-1,2.76-3.44,2.76A6.62,6.62,0,0,1,96.83,70.83Z"/><path class="cls-3" d="M106.81,64.71h-2.39V62.48h7.23v2.23h-2.38V71.6h-2.46Z"/><path class="cls-3" d="M99.32,77.93h-.81l-.37,2h1.32c.48,0,.73-.18.86-.9a3.29,3.29,0,0,0,0-.41C100.35,78.18,100.1,77.93,99.32,77.93Z"/><path class="cls-3" d="M54.26,77.93h-.81l-.36,2h1.32c.47,0,.72-.18.86-.9a3.29,3.29,0,0,0,0-.41C55.3,78.18,55.05,77.93,54.26,77.93Z"/><polygon class="cls-3" points="73.84 81.54 75.17 81.54 74.9 79.32 73.84 81.54"/><path class="cls-3" d="M17.58,73.71v13h93.64v-13Zm6.93,10.88L24.2,79.8l-2.05,4.79H20l-.37-8.66h2.49v4l1.68-4h2.25l.24,4,1.46-4h2.34l-3.51,8.66Zm5,0,1.56-8.61h2.36l-1.56,8.61Zm8.46,0L36.2,80.06l-.81,4.48H33.15l1.56-8.61h2.48l1.54,4,.74-4h2.25l-1.56,8.61ZM48.19,78H44.78l-.2,1.13h3.26l-.37,2H44.21L44,82.49h3.41L47,84.54H41.29l1.56-8.61h5.72Zm8.33,6.51H54.18l-.67-2.74h-.75l-.5,2.74H49.94l1.56-8.61h2.88c2.58,0,3.3,1,3.3,2.29a4.61,4.61,0,0,1-.09.88,2.86,2.86,0,0,1-1.82,2.51ZM64.38,78H61l-.2,1.13H64l-.37,2H60.4l-.24,1.29h3.41l-.37,2.05H57.48L59,75.93h5.72Zm2.07,6.51L67.63,78H65.39l.39-2.1h6.86L72.26,78H70l-1.18,6.51Zm9,0-.12-1H72.91l-.49,1H70l4.4-8.67H76.7L78,84.54Zm3,0,1.56-8.61h2.36l-1.56,8.61Zm9,0H81.94l1.57-8.61h2.36l-1.2,6.56h3.17Zm7-3.34H91.22L91,82.49h3.41L94,84.54H88.3l1.56-8.61h5.72L95.2,78H91.79l-.21,1.13h3.27Zm7.09,3.34H99.23l-.66-2.74h-.75l-.5,2.74H95l1.56-8.61h2.89c2.57,0,3.3,1,3.3,2.29a4.66,4.66,0,0,1-.1.88,2.83,2.83,0,0,1-1.82,2.51Zm5.05-5.22c1.79.55,2.52,1.13,2.52,2.31,0,2.12-1.29,3-3.38,3a6.6,6.6,0,0,1-3.8-.94l1.3-1.74a4.29,4.29,0,0,0,2.53.78c.76,0,1-.33,1-.77s-.3-.58-1.54-1c-1.41-.45-2-1.14-2-2.18,0-2.37,1.68-3,3.51-3a6,6,0,0,1,3,.67l-1.15,1.92a4.26,4.26,0,0,0-1.94-.48c-.68,0-1,.14-1,.62S105.86,79.09,106.62,79.32Z"/><path class="cls-3" d="M113.08,83.26v.22h-.42v1.09h-.27V83.48H112v-.22Zm1.42,1.31,0-.77c0-.1,0-.23,0-.37h0c0,.12-.07.27-.11.39l-.23.73h-.27l-.24-.75c0-.1-.06-.25-.09-.37h0c0,.12,0,.25,0,.37l0,.77h-.25l.1-1.31h.39l.23.64c0,.1,0,.2.08.33h0c0-.12.06-.23.09-.32l.23-.65h.38l.1,1.31Z"/></g></g></svg>