<svg xmlns="http://www.w3.org/2000/svg" viewBox="0 0 124.68 124.68"><defs><style>.cls-1{fill:#4e4d4d;}.cls-2,.cls-3,.cls-6,.cls-7{isolation:isolate;}.cls-3{font-size:7.48px;font-family:Verdana;}.cls-3,.cls-4,.cls-5,.cls-7{fill:#fff;}.cls-4{fill-rule:evenodd;}.cls-6,.cls-7{font-size:9.56px;font-family:Verdana-Bold, Verdana;font-weight:700;}.cls-6{fill:#fffefe;}</style></defs><g id="Layer_2" data-name="Layer 2"><g id="Layer_1-2" data-name="Layer 1"><circle class="cls-1" cx="62.34" cy="62.34" r="62.34"/><g class="cls-2"><text class="cls-3" transform="translate(35.42 35.33)">wine-searcher</text></g><path class="cls-4" d="M57,20.86a2.23,2.23,0,0,1,.07-.85h-1.6a1.06,1.06,0,0,0-1.07,1v3.68a1.07,1.07,0,0,0,1.07,1H66.1c1.64,0,1.35-1.91,3.22-1.91h2.85a.19.19,0,0,0,.19.16H73a.19.19,0,0,0,.2-.19V21.94a.19.19,0,0,0-.2-.19h-.59a.19.19,0,0,0-.19.16H69.32c-1.84-.1-1.63-1.9-3.22-1.9H62.4a2.44,2.44,0,0,1,0,.85h3c1.13,0,1.27.93,2.1,1.36a5.27,5.27,0,0,0,1.35.23H69v.22c0,.09,0,.6,0,.69H68.9a5.11,5.11,0,0,0-1.37.18c-.79.36-.92,1.37-2.1,1.37H56.2c-.48,0-.92-.35-.86-.78a9,9,0,0,0,0-2.49c-.07-.42.38-.78.86-.78Zm1.27,1a1.86,1.86,0,0,1,.2-2.68,2,2,0,0,1,2.78.14A1.88,1.88,0,0,1,61.08,22,2,2,0,0,1,58.31,21.84Zm-.11-3.4-.34-.38a.44.44,0,0,0-.07-.48L56,15.63a.47.47,0,0,0-.65,0l-.15.12a.44.44,0,0,0,0,.63l1.76,1.95a.46.46,0,0,0,.48.13l.34.38a2.58,2.58,0,0,0-.07,3.51,2.76,2.76,0,0,0,3.82.2,2.57,2.57,0,0,0,.28-3.7A2.75,2.75,0,0,0,58.2,18.44Z"/><rect class="cls-5" x="12.88" y="79.79" width="99.74" height="0.83"/><rect class="cls-5" x="12.88" y="43.22" width="99.74" height="0.83"/><text class="cls-6" transform="translate(26.06 58.6)">French List in</text><text class="cls-7" transform="translate(40.31 71.07)">Oakland</text><text class="cls-7" transform="translate(47.39 96)">GOLD</text><text class="cls-3" transform="translate(52.83 108.47)">2020</text></g></g></svg>