<svg xmlns="http://www.w3.org/2000/svg" viewBox="0 0 56.48 36.6"><defs><style>.cls-1{fill:#4e4d4d;}</style></defs><g id="Layer_2" data-name="Layer 2"><g id="Layer_1-2" data-name="Layer 1"><path class="cls-1" d="M12.12,14.92a1.89,1.89,0,0,0-1-.22h-.38a.6.6,0,0,0-.56.44l-.35,1.52a.35.35,0,0,0,.36.45h.28a2.44,2.44,0,0,0,1.48-.39,1.24,1.24,0,0,0,.53-1.1A.78.78,0,0,0,12.12,14.92Z"/><path class="cls-1" d="M18.37,18.43l-.86.09a4.57,4.57,0,0,0-.78.17l-.49.34a.86.86,0,0,0-.17.57l.22.44a1.37,1.37,0,0,0,.67.13,1.58,1.58,0,0,0,.61-.14L18,19.8l.18-.24c.08-.29.22-.91.24-1Z"/><path class="cls-1" d="M55,0H1.45A1.45,1.45,0,0,0,0,1.45v33.7A1.45,1.45,0,0,0,1.45,36.6H55a1.45,1.45,0,0,0,1.45-1.45V1.45A1.45,1.45,0,0,0,55,0ZM13.48,17.76a5.61,5.61,0,0,1-3.33.88H9.81a.61.61,0,0,0-.56.44l-.4,1.74a.6.6,0,0,1-.56.44H7.12a.34.34,0,0,1-.35-.44l1.64-7.17A.61.61,0,0,1,9,13.21h2.45a7.08,7.08,0,0,1,1.38.11,2.88,2.88,0,0,1,1,.37,1.77,1.77,0,0,1,.64.69,2.21,2.21,0,0,1,.22,1A2.74,2.74,0,0,1,13.48,17.76Zm7.27-.92-.05.3-.85,3.7a.59.59,0,0,1-.51.43h-1.1a.36.36,0,0,1-.32-.44h0l0-.19h0l-.44.29-.48.27-.56.2a3.53,3.53,0,0,1-.74.06A1.75,1.75,0,0,1,14.51,21,1.47,1.47,0,0,1,14,19.92a2.11,2.11,0,0,1,.34-1.22,2.31,2.31,0,0,1,1-.8,5.86,5.86,0,0,1,1.49-.4,17,17,0,0,1,1.73-.19l.16-.1,0-.17a.53.53,0,0,0-.35-.53,2.91,2.91,0,0,0-1.06-.15,5.07,5.07,0,0,0-1.1.15,5.84,5.84,0,0,0-.7.2c-.09,0-.31.05-.23-.33l.15-.59a.69.69,0,0,1,.51-.54l.6-.11A9.81,9.81,0,0,1,18,15a4.43,4.43,0,0,1,2.09.37,1.26,1.26,0,0,1,.67,1.16Zm1.88,7.28H21.42c-.26,0-.34-.2-.19-.45l1-1.81s.08-.1,0-.69c-.16-1.07-1-5.6-1-5.6a.35.35,0,0,1,.35-.44h1a.66.66,0,0,1,.64.46l.52,3.15h.2c.16-.29,1.84-3.17,1.84-3.17a1,1,0,0,1,.73-.44h1.41c.41,0,0,.66,0,.66l-4.66,7.89A1,1,0,0,1,22.63,24.12Zm12.11-6.33a5.6,5.6,0,0,1-3.34.87h-.33a.62.62,0,0,0-.57.45l-.39,1.74a.62.62,0,0,1-.56.44H28.37a.34.34,0,0,1-.35-.44l1.65-7.17a.6.6,0,0,1,.56-.44h2.44a9,9,0,0,1,1.38.11,3.08,3.08,0,0,1,1,.37,1.79,1.79,0,0,1,.64.7,2.33,2.33,0,0,1,.23,1.05A2.8,2.8,0,0,1,34.74,17.79ZM42,16.85l0,.3-.86,3.69a.6.6,0,0,1-.5.44H39.5a.34.34,0,0,1-.31-.44h0l0-.18h0l-.44.29-.48.27-.56.19a3.42,3.42,0,0,1-.74.07A1.8,1.8,0,0,1,35.77,21a1.43,1.43,0,0,1-.48-1.11,2.14,2.14,0,0,1,.34-1.23,2.31,2.31,0,0,1,1-.79,5.47,5.47,0,0,1,1.49-.41c.58-.08,1.06-.14,1.73-.19l.16-.1L40,17a.53.53,0,0,0-.35-.53,2.91,2.91,0,0,0-1.06-.15,5.07,5.07,0,0,0-1.1.15,5.94,5.94,0,0,0-.7.21c-.09,0-.31,0-.23-.33l.15-.59a.66.66,0,0,1,.51-.54,5.16,5.16,0,0,1,.6-.11A8.6,8.6,0,0,1,39.27,15a4.41,4.41,0,0,1,2.09.38A1.22,1.22,0,0,1,42,16.56Zm3.75-3.11-1.57,7.1,0,.09a.59.59,0,0,1-.51.36H42.53l0,0a.33.33,0,0,1-.29-.41h0l.05-.2L43.73,14l.05-.23.06-.09a.59.59,0,0,1,.51-.35h1a.35.35,0,0,1,.36.44ZM47.83,13h-.39v.66l0,.1.06.06.12,0,.1,0,.07,0h0v.17l-.12,0H47.6l-.26-.09-.09-.3V13h-.14v-.16h.14v-.33h.19v.33h.39Zm1.89.24V14h-.18V13.3l0-.14,0-.11L49.43,13l-.12,0-.16,0-.17.11V14H48.8v-.79l0-.11L48.7,13l-.13,0-.16,0-.16.1V14h-.18V12.81h.18v.13l.19-.12.18,0,.2.05.12.13.21-.14.21,0,.28.11.09.32Z"/><path class="cls-1" d="M39.63,18.43l-.86.1a4.05,4.05,0,0,0-.77.17,1.11,1.11,0,0,0-.5.34.84.84,0,0,0-.17.57l.23.44a1.39,1.39,0,0,0,.66.13,1.58,1.58,0,0,0,.61-.14l.46-.23.19-.25c.07-.28.22-.91.23-1Z"/><path class="cls-1" d="M33.37,15a1.84,1.84,0,0,0-1-.23H32a.6.6,0,0,0-.56.45l-.36,1.52a.35.35,0,0,0,.36.44h.29a2.53,2.53,0,0,0,1.48-.38,1.29,1.29,0,0,0,.53-1.1A.8.8,0,0,0,33.37,15Z"/></g></g></svg>