<svg xmlns="http://www.w3.org/2000/svg" viewBox="0 0 25.45 25.45"><defs><style>.cls-1{fill:#a21d54;}</style></defs><g id="Layer_2" data-name="Layer 2"><g id="Layer_1-2" data-name="Layer 1"><path class="cls-1" d="M12.73,0A12.73,12.73,0,1,0,25.45,12.73,12.73,12.73,0,0,0,12.73,0Zm5.81,9.92v.38a8.25,8.25,0,0,1-8.31,8.31h0A8.22,8.22,0,0,1,5.76,17.3c.23,0,.46,0,.69,0a5.89,5.89,0,0,0,3.63-1.25,2.93,2.93,0,0,1-2.73-2,3.31,3.31,0,0,0,.55,0,2.76,2.76,0,0,0,.77-.1,2.92,2.92,0,0,1-2.34-2.86v0a2.8,2.8,0,0,0,1.32.36A2.91,2.91,0,0,1,6.35,9a3,3,0,0,1,.4-1.47,8.31,8.31,0,0,0,6,3.06,3,3,0,0,1-.08-.67,2.92,2.92,0,0,1,5-2,5.66,5.66,0,0,0,1.86-.71,2.92,2.92,0,0,1-1.28,1.62A5.82,5.82,0,0,0,20,8.41,5.79,5.79,0,0,1,18.54,9.92Z"/></g></g></svg>