<svg xmlns="http://www.w3.org/2000/svg" viewBox="0 0 34.34 34.34"><defs><style>.cls-1{fill:#c6a777;}</style></defs><g id="Layer_2" data-name="Layer 2"><g id="Layer_1-2" data-name="Layer 1"><path class="cls-1" d="M17.17,0A17.17,17.17,0,1,0,34.34,17.17,17.17,17.17,0,0,0,17.17,0ZM25,13.39c0,.17,0,.34,0,.51A11.14,11.14,0,0,1,13.81,25.11h0a11.11,11.11,0,0,1-6-1.77,7.3,7.3,0,0,0,.94.05,8,8,0,0,0,4.89-1.68A3.94,3.94,0,0,1,9.92,19a3.64,3.64,0,0,0,.74.07,4,4,0,0,0,1-.14A3.94,3.94,0,0,1,8.54,15v0a4,4,0,0,0,1.78.49A3.94,3.94,0,0,1,8.57,12.2a4,4,0,0,1,.53-2,11.21,11.21,0,0,0,8.13,4.12,3.82,3.82,0,0,1-.1-.9,3.94,3.94,0,0,1,6.81-2.7,7.86,7.86,0,0,0,2.51-1A4,4,0,0,1,24.71,12,8.2,8.2,0,0,0,27,11.35,8.13,8.13,0,0,1,25,13.39Z"/></g></g></svg>