<svg xmlns="http://www.w3.org/2000/svg" viewBox="0 0 56.48 36.6"><defs><style>.cls-1{fill:#4e4d4d;}</style></defs><g id="Layer_2" data-name="Layer 2"><g id="Layer_1-2" data-name="Layer 1"><path class="cls-1" d="M55,0H1.45A1.45,1.45,0,0,0,0,1.45v33.7A1.45,1.45,0,0,0,1.45,36.6H55a1.45,1.45,0,0,0,1.45-1.45V1.45A1.45,1.45,0,0,0,55,0ZM4.37,11.06h6a1.57,1.57,0,0,1,1.7,1.16l1.31,6.31c-1.29-3.3-4.4-6.05-9.09-7.18Zm7.3,14.38L8.19,13.54a15.32,15.32,0,0,1,5.38,5.92L14,20.93l3.81-9.73h4.12L15.78,25.44Zm13.26,0H21.05l2.43-14.27h3.89Zm6.77.21a12.11,12.11,0,0,1-4.33-.76l.54-3.19.51.23a8.16,8.16,0,0,0,3.66.75c1.11,0,2.31-.44,2.32-1.4,0-.62-.5-1.07-2-1.77S29,17.7,29,15.65c0-2.78,2.73-4.71,6.57-4.71a10,10,0,0,1,3.49.6l-.53,3.09-.35-.16a7.16,7.16,0,0,0-2.91-.55c-1.52,0-2.23.63-2.23,1.23s.82,1.1,2.18,1.77c2.25,1,3.28,2.25,3.27,3.87C38.44,23.75,35.79,25.66,31.7,25.66Zm16.85-.2-.47-2.14h-5c-.16.39-.82,2.15-.82,2.15H38.2L44,12.38a1.93,1.93,0,0,1,2-1.18h3l3.15,14.26Z"/><path class="cls-1" d="M46.54,16.28l-.26-1.23c-.2.53-.54,1.4-.52,1.36l-1.55,4h3.23C47.29,19.68,46.54,16.28,46.54,16.28Z"/></g></g></svg>