<svg xmlns="http://www.w3.org/2000/svg" viewBox="0 0 34.28 34.28"><defs><style>.cls-1{fill:#c6a777;}</style></defs><g id="Layer_2" data-name="Layer 2"><g id="Layer_1-2" data-name="Layer 1"><polygon class="cls-1" points="9 18.4 10.36 18.4 10.36 25.76 11.65 25.76 11.65 18.4 13.03 18.4 13.03 17.2 9 17.2 9 18.4"/><path class="cls-1" d="M19.87,19.3a1.56,1.56,0,0,0-1.19.69V17.2H17.52v8.56h1.16v-.62a1.57,1.57,0,0,0,1.19.71.93.93,0,0,0,.93-.72,5.59,5.59,0,0,0,.11-1.29V21.3A5.38,5.38,0,0,0,20.8,20,.92.92,0,0,0,19.87,19.3Zm-.11,4.63c0,.58-.17.86-.51.86a.81.81,0,0,1-.57-.28V20.62a.81.81,0,0,1,.57-.28c.34,0,.51.3.51.87Z"/><path class="cls-1" d="M15.37,24.25c-.26.37-.5.54-.73.54s-.25-.09-.27-.27a3.49,3.49,0,0,1,0-.44v-4.7H13.2v5a3.38,3.38,0,0,0,.1.95.72.72,0,0,0,.75.48,1.86,1.86,0,0,0,1.32-.79v.7h1.15V19.38H15.37Z"/><path class="cls-1" d="M16.36,13.49c.38,0,.56-.3.56-.9V9.88c0-.59-.18-.89-.56-.89s-.56.3-.56.89v2.71C15.8,13.19,16,13.49,16.36,13.49Z"/><path class="cls-1" d="M17.14,0A17.14,17.14,0,1,0,34.28,17.14,17.14,17.14,0,0,0,17.14,0ZM19,8h1.17v4.74a3.93,3.93,0,0,0,0,.46c0,.18.12.27.28.27s.48-.18.73-.55V8H22.4v6.44H21.23v-.7a1.86,1.86,0,0,1-1.33.79.71.71,0,0,1-.75-.48,3,3,0,0,1-.11-1V8Zm-4.41,2.1A2.48,2.48,0,0,1,15,8.6a1.73,1.73,0,0,1,2.72,0,2.49,2.49,0,0,1,.36,1.52v2.25a2.49,2.49,0,0,1-.36,1.52,1.73,1.73,0,0,1-2.72,0,2.48,2.48,0,0,1-.37-1.52ZM11.51,5.81l.92,3.4.88-3.4h1.31L13.07,11v3.5h-1.3V11A22.87,22.87,0,0,0,11,8.22c-.27-.8-.56-1.61-.83-2.41ZM26.36,26.32A2.4,2.4,0,0,1,24.3,28.2a63.3,63.3,0,0,1-7.16.26A63.3,63.3,0,0,1,10,28.2a2.41,2.41,0,0,1-2.07-1.88,20.68,20.68,0,0,1-.33-4.52,20.68,20.68,0,0,1,.33-4.52A2.42,2.42,0,0,1,10,15.4a65.72,65.72,0,0,1,7.16-.26,65.72,65.72,0,0,1,7.16.26,2.42,2.42,0,0,1,2.07,1.88,20.68,20.68,0,0,1,.33,4.52A20.09,20.09,0,0,1,26.36,26.32Z"/><path class="cls-1" d="M23.55,19.3a1.63,1.63,0,0,0-1.38.66,2.44,2.44,0,0,0-.36,1.5v2.23a2.5,2.5,0,0,0,.37,1.5,1.66,1.66,0,0,0,1.4.66,1.59,1.59,0,0,0,1.4-.7,1.61,1.61,0,0,0,.27-.69c0-.11,0-.37,0-.74v-.17H24.1a6.83,6.83,0,0,1,0,.78c-.07.31-.23.46-.52.46S23,24.5,23,23.91V22.78h2.31V21.46a2.52,2.52,0,0,0-.35-1.5A1.62,1.62,0,0,0,23.55,19.3Zm.57,2.52H23v-.59c0-.59.2-.89.58-.89s.58.3.58.89Z"/></g></g></svg>