<svg xmlns="http://www.w3.org/2000/svg" viewBox="0 0 25.4 25.4"><defs><style>.cls-1{fill:#a21d54;}</style></defs><g id="Layer_2" data-name="Layer 2"><g id="Layer_1-2" data-name="Layer 1"><polygon class="cls-1" points="6.67 13.64 7.68 13.64 7.68 19.09 8.63 19.09 8.63 13.64 9.66 13.64 9.66 12.75 6.67 12.75 6.67 13.64"/><path class="cls-1" d="M14.73,14.31a1.16,1.16,0,0,0-.89.51V12.75H13v6.34h.85v-.46a1.15,1.15,0,0,0,.89.52.66.66,0,0,0,.68-.53,3.58,3.58,0,0,0,.09-.95V15.79a3.48,3.48,0,0,0-.09-.95A.66.66,0,0,0,14.73,14.31Zm-.09,3.43c0,.43-.12.64-.37.64a.64.64,0,0,1-.43-.21V15.28a.63.63,0,0,1,.43-.2c.25,0,.37.21.37.64Z"/><path class="cls-1" d="M11.39,18c-.19.26-.37.4-.54.4s-.18-.07-.2-.2a2.22,2.22,0,0,1,0-.34V14.36H9.78V18.1a2.25,2.25,0,0,0,.08.7.51.51,0,0,0,.55.35,1.36,1.36,0,0,0,1-.58v.52h.86V14.36h-.86Z"/><path class="cls-1" d="M12.12,10c.28,0,.42-.22.42-.67v-2q0-.66-.42-.66c-.27,0-.41.22-.41.66v2C11.71,9.78,11.85,10,12.12,10Z"/><path class="cls-1" d="M12.7,0A12.7,12.7,0,1,0,25.4,12.7,12.71,12.71,0,0,0,12.7,0Zm1.41,5.94H15V9.46a2,2,0,0,0,0,.33c0,.14.08.21.2.21s.36-.14.55-.41V5.94h.86v4.78h-.86V10.2a1.42,1.42,0,0,1-1,.58.53.53,0,0,1-.56-.35,2.32,2.32,0,0,1-.08-.71V5.94ZM10.85,7.5a1.83,1.83,0,0,1,.27-1.13,1.28,1.28,0,0,1,2,0A1.83,1.83,0,0,1,13.4,7.5V9.17a1.78,1.78,0,0,1-.27,1.12,1.28,1.28,0,0,1-2,0,1.78,1.78,0,0,1-.27-1.12ZM8.53,4.31l.68,2.51.66-2.51h1L9.68,8.12v2.6h-1V8.12a15.92,15.92,0,0,0-.58-2c-.21-.59-.42-1.19-.62-1.78Zm11,15.2A1.78,1.78,0,0,1,18,20.9a47,47,0,0,1-5.31.2,47,47,0,0,1-5.31-.2,1.8,1.8,0,0,1-1.53-1.39,15.66,15.66,0,0,1-.24-3.35,15,15,0,0,1,.25-3.35,1.8,1.8,0,0,1,1.53-1.4,49.23,49.23,0,0,1,5.3-.19,49.5,49.5,0,0,1,5.31.19,1.8,1.8,0,0,1,1.53,1.4,15,15,0,0,1,.25,3.35A15,15,0,0,1,19.54,19.51Z"/><path class="cls-1" d="M17.46,14.31a1.23,1.23,0,0,0-1,.48,1.86,1.86,0,0,0-.26,1.11v1.66a1.85,1.85,0,0,0,.27,1.11,1.24,1.24,0,0,0,1,.48,1.16,1.16,0,0,0,1-.51,1.14,1.14,0,0,0,.2-.51c0-.09,0-.28,0-.55v-.13h-.87a4.57,4.57,0,0,1,0,.58c-.05.23-.17.35-.38.35s-.44-.22-.44-.66v-.84h1.71v-1a1.86,1.86,0,0,0-.26-1.11A1.19,1.19,0,0,0,17.46,14.31Zm.42,1.86H17v-.44c0-.44.14-.65.43-.65s.43.21.43.65Z"/></g></g></svg>