<?xml version="1.0" encoding="utf-8"?>
<!-- Generator: Adobe Illustrator 25.0.0, SVG Export Plug-In . SVG Version: 6.00 Build 0)  -->
<svg version="1.1" id="Layer_1" xmlns="http://www.w3.org/2000/svg" xmlns:xlink="http://www.w3.org/1999/xlink" x="0px" y="0px"
	 viewBox="0 0 110.8 28.3" style="enable-background:new 0 0 110.8 28.3;" xml:space="preserve">
<style type="text/css">
	.st0{fill:#750D2D;}
	.st1{fill:#FFFFFF;}
	.st2{font-family:'Arial-BoldMT';}
	.st3{font-size:12.28px;}
	.st4{fill:#C6A777;}
	.st5{font-family:'Helvetica';}
	.st6{font-size:11px;}
	.st7{fill:none;stroke:#FFFFFF;stroke-width:0.28;stroke-linejoin:round;}
</style>
<g id="Layer_2_1_">
	<g id="Layer_1-2">
		<polygon class="st0" points="74,11.8 0.4,11.8 7.6,20 0.4,28.6 74,28.6 		"/>
		<polygon class="st0" points="37.3,28.3 110.8,28.3 103.7,20.2 110.8,11.5 37.3,11.5 		"/>
		<text transform="matrix(1 0 0 1 12.1694 23.83)" class="st1 st2 st3">BEST SELLER</text>
		<rect x="0.4" class="st4" width="110.4" height="11.8"/>
		<text transform="matrix(1 0 0 1 41.65 10.28)" class="st1 st5 st6">N</text>
		<text transform="matrix(1 0 0 1 41.65 10.28)" class="st7 st5 st6">N</text>
		<text transform="matrix(1 0 0 1 49.77 10.28)" class="st1 st5 st6">E</text>
		<text transform="matrix(1 0 0 1 49.77 10.28)" class="st7 st5 st6">E</text>
		<text transform="matrix(1 0 0 1 56.16 10.28)" class="st1 st5 st6">W!</text>
		<text transform="matrix(1 0 0 1 56.16 10.28)" class="st7 st5 st6">W!</text>
	</g>
</g>
</svg>
